<mxfile host="Electron" modified="2024-04-14T19:39:47.255Z" agent="Mozilla/5.0 (Windows NT 10.0; Win64; x64) AppleWebKit/537.36 (KHTML, like Gecko) draw.io/24.1.0 Chrome/120.0.6099.109 Electron/28.1.0 Safari/537.36" etag="vTEVS6pW8IkhDNXuRdwb" version="24.1.0" type="device">
  <diagram id="C5RBs43oDa-KdzZeNtuy" name="Page-1">
    <mxGraphModel dx="880" dy="532" grid="0" gridSize="10" guides="1" tooltips="1" connect="1" arrows="1" fold="1" page="1" pageScale="1" pageWidth="4681" pageHeight="3300" background="#F0F0F0" math="0" shadow="0">
      <root>
        <mxCell id="WIyWlLk6GJQsqaUBKTNV-0" />
        <mxCell id="WIyWlLk6GJQsqaUBKTNV-1" parent="WIyWlLk6GJQsqaUBKTNV-0" />
        <mxCell id="t_3KVrFBqGaoaHZ3aIhR-58" value="Employee" style="swimlane;fontStyle=1;align=center;verticalAlign=middle;childLayout=stackLayout;horizontal=1;startSize=26;horizontalStack=0;resizeParent=1;resizeLast=0;collapsible=1;marginBottom=0;rounded=0;shadow=0;strokeWidth=1;fontSize=15;labelBackgroundColor=none;fillColor=#A8DADC;strokeColor=#457B9D;fontColor=#1D3557;" parent="WIyWlLk6GJQsqaUBKTNV-1" vertex="1">
          <mxGeometry x="671" y="395" width="270" height="307" as="geometry">
            <mxRectangle x="230" y="140" width="160" height="26" as="alternateBounds" />
          </mxGeometry>
        </mxCell>
        <mxCell id="gEmX9rRlGxYNB2lgslIP-136" value="- role : Roles" style="text;html=1;align=left;verticalAlign=middle;whiteSpace=wrap;rounded=0;fontSize=12;labelBackgroundColor=none;fontColor=#1D3557;" parent="t_3KVrFBqGaoaHZ3aIhR-58" vertex="1">
          <mxGeometry y="26" width="270" height="20" as="geometry" />
        </mxCell>
        <mxCell id="gEmX9rRlGxYNB2lgslIP-86" value="- salary : float" style="text;html=1;align=left;verticalAlign=middle;whiteSpace=wrap;rounded=0;fontSize=12;labelBackgroundColor=none;fontColor=#1D3557;" parent="t_3KVrFBqGaoaHZ3aIhR-58" vertex="1">
          <mxGeometry y="46" width="270" height="20" as="geometry" />
        </mxCell>
        <mxCell id="t_3KVrFBqGaoaHZ3aIhR-62" value="" style="line;html=1;strokeWidth=1;align=left;verticalAlign=middle;spacingTop=-1;spacingLeft=3;spacingRight=3;rotatable=0;labelPosition=right;points=[];portConstraint=eastwest;labelBackgroundColor=none;fillColor=#A8DADC;strokeColor=#457B9D;fontColor=#1D3557;" parent="t_3KVrFBqGaoaHZ3aIhR-58" vertex="1">
          <mxGeometry y="66" width="270" height="26" as="geometry" />
        </mxCell>
        <mxCell id="gEmX9rRlGxYNB2lgslIP-165" value="+Employee(string us, string p, string e,&#xa;string bd, string g , Roles role, float s)" style="text;align=left;verticalAlign=bottom;spacingLeft=0;spacingRight=4;overflow=hidden;rotatable=0;points=[[0,0.5],[1,0.5]];portConstraint=eastwest;rounded=0;shadow=0;html=0;fontSize=12;spacingTop=-12;spacingBottom=-1;labelBackgroundColor=none;fontColor=#1D3557;" parent="t_3KVrFBqGaoaHZ3aIhR-58" vertex="1">
          <mxGeometry y="92" width="270" height="18" as="geometry" />
        </mxCell>
        <mxCell id="K1Qb6Dx1jlNtI37zLWzs-22" value="+getSalary() : float" style="text;html=1;align=left;verticalAlign=top;whiteSpace=wrap;rounded=0;fontSize=12;spacingBottom=-11;spacingTop=7;labelBackgroundColor=none;fontColor=#1D3557;" parent="t_3KVrFBqGaoaHZ3aIhR-58" vertex="1">
          <mxGeometry y="110" width="270" height="21" as="geometry" />
        </mxCell>
        <mxCell id="K1Qb6Dx1jlNtI37zLWzs-27" value="+submitResignationform():void" style="text;html=1;align=left;verticalAlign=top;whiteSpace=wrap;rounded=0;fontSize=12;spacingBottom=-11;spacingTop=7;labelBackgroundColor=none;fontColor=#1D3557;" parent="t_3KVrFBqGaoaHZ3aIhR-58" vertex="1">
          <mxGeometry y="131" width="270" height="28" as="geometry" />
        </mxCell>
        <mxCell id="K1Qb6Dx1jlNtI37zLWzs-26" value="+requestTimeoff():boolean" style="text;html=1;align=left;verticalAlign=top;whiteSpace=wrap;rounded=0;fontSize=12;spacingBottom=-11;spacingTop=7;labelBackgroundColor=none;fontColor=#1D3557;" parent="t_3KVrFBqGaoaHZ3aIhR-58" vertex="1">
          <mxGeometry y="159" width="270" height="20" as="geometry" />
        </mxCell>
        <mxCell id="K1Qb6Dx1jlNtI37zLWzs-25" value="+reportViolation():void" style="text;html=1;align=left;verticalAlign=top;whiteSpace=wrap;rounded=0;fontSize=12;spacingBottom=-11;spacingTop=7;labelBackgroundColor=none;fontColor=#1D3557;" parent="t_3KVrFBqGaoaHZ3aIhR-58" vertex="1">
          <mxGeometry y="179" width="270" height="20" as="geometry" />
        </mxCell>
        <mxCell id="K1Qb6Dx1jlNtI37zLWzs-24" value="+viewInsuranceCoverage(): void" style="text;html=1;align=left;verticalAlign=top;whiteSpace=wrap;rounded=0;fontSize=12;spacingBottom=-11;spacingTop=7;labelBackgroundColor=none;fontColor=#1D3557;" parent="t_3KVrFBqGaoaHZ3aIhR-58" vertex="1">
          <mxGeometry y="199" width="270" height="20" as="geometry" />
        </mxCell>
        <mxCell id="K1Qb6Dx1jlNtI37zLWzs-23" value="+enrollInInsurance() : void" style="text;html=1;align=left;verticalAlign=top;whiteSpace=wrap;rounded=0;fontSize=12;spacingBottom=-11;spacingTop=7;labelBackgroundColor=none;fontColor=#1D3557;" parent="t_3KVrFBqGaoaHZ3aIhR-58" vertex="1">
          <mxGeometry y="219" width="270" height="20" as="geometry" />
        </mxCell>
        <mxCell id="K1Qb6Dx1jlNtI37zLWzs-21" value="+getRole() : Roles" style="text;html=1;align=left;verticalAlign=top;whiteSpace=wrap;rounded=0;fontSize=12;spacingBottom=-11;spacingTop=7;labelBackgroundColor=none;fontColor=#1D3557;" parent="t_3KVrFBqGaoaHZ3aIhR-58" vertex="1">
          <mxGeometry y="239" width="270" height="20" as="geometry" />
        </mxCell>
        <mxCell id="K1Qb6Dx1jlNtI37zLWzs-20" value="+setSalary( float s) : void" style="text;html=1;align=left;verticalAlign=top;whiteSpace=wrap;rounded=0;fontSize=12;spacingBottom=-11;spacingTop=7;labelBackgroundColor=none;fontColor=#1D3557;" parent="t_3KVrFBqGaoaHZ3aIhR-58" vertex="1">
          <mxGeometry y="259" width="270" height="20" as="geometry" />
        </mxCell>
        <mxCell id="t_3KVrFBqGaoaHZ3aIhR-114" value="ProcurementManager" style="swimlane;fontStyle=1;align=center;verticalAlign=top;childLayout=stackLayout;horizontal=1;startSize=26;horizontalStack=0;resizeParent=1;resizeLast=0;collapsible=1;marginBottom=0;rounded=0;shadow=0;strokeWidth=1;fontSize=15;labelBackgroundColor=none;fillColor=#A8DADC;strokeColor=#457B9D;fontColor=#1D3557;" parent="WIyWlLk6GJQsqaUBKTNV-1" vertex="1">
          <mxGeometry x="544" y="947" width="287" height="210" as="geometry">
            <mxRectangle x="230" y="140" width="160" height="26" as="alternateBounds" />
          </mxGeometry>
        </mxCell>
        <mxCell id="t_3KVrFBqGaoaHZ3aIhR-118" value="" style="line;html=1;strokeWidth=1;align=left;verticalAlign=middle;spacingTop=-1;spacingLeft=3;spacingRight=3;rotatable=0;labelPosition=right;points=[];portConstraint=eastwest;labelBackgroundColor=none;fillColor=#A8DADC;strokeColor=#457B9D;fontColor=#1D3557;" parent="t_3KVrFBqGaoaHZ3aIhR-114" vertex="1">
          <mxGeometry y="26" width="287" height="24" as="geometry" />
        </mxCell>
        <mxCell id="06Cd4AgThaGGWCjbHUdQ-14" value="+addPartnership(partnership : Partnership) : void" style="text;html=1;align=left;verticalAlign=middle;whiteSpace=wrap;rounded=0;fontSize=12;spacingTop=-17;spacingBottom=-22;labelBackgroundColor=none;fontColor=#1D3557;" parent="t_3KVrFBqGaoaHZ3aIhR-114" vertex="1">
          <mxGeometry y="50" width="287" height="46" as="geometry" />
        </mxCell>
        <mxCell id="t_3KVrFBqGaoaHZ3aIhR-123" value="+monitorSupplierPerformance(performanceRate) : void" style="text;html=1;align=left;verticalAlign=middle;whiteSpace=wrap;rounded=0;fontSize=12;spacingTop=-17;spacingBottom=-6;labelBackgroundColor=none;fontColor=#1D3557;" parent="t_3KVrFBqGaoaHZ3aIhR-114" vertex="1">
          <mxGeometry y="96" width="287" height="20" as="geometry" />
        </mxCell>
        <mxCell id="06Cd4AgThaGGWCjbHUdQ-12" value="+manageSupplierPartnership() : void&amp;nbsp;" style="text;html=1;align=left;verticalAlign=middle;whiteSpace=wrap;rounded=0;fontSize=12;spacingTop=-17;spacingBottom=-22;labelBackgroundColor=none;fontColor=#1D3557;" parent="t_3KVrFBqGaoaHZ3aIhR-114" vertex="1">
          <mxGeometry y="116" width="287" height="40" as="geometry" />
        </mxCell>
        <mxCell id="06Cd4AgThaGGWCjbHUdQ-13" value="+manageDistributorPartnership() : void" style="text;html=1;align=left;verticalAlign=middle;whiteSpace=wrap;rounded=0;fontSize=12;spacingTop=-17;spacingBottom=-22;labelBackgroundColor=none;fontColor=#1D3557;" parent="t_3KVrFBqGaoaHZ3aIhR-114" vertex="1">
          <mxGeometry y="156" width="287" height="2" as="geometry" />
        </mxCell>
        <mxCell id="t_3KVrFBqGaoaHZ3aIhR-126" value="Donation" style="swimlane;fontStyle=1;align=center;verticalAlign=top;childLayout=stackLayout;horizontal=1;startSize=26;horizontalStack=0;resizeParent=1;resizeLast=0;collapsible=1;marginBottom=0;rounded=0;shadow=0;strokeWidth=1;fontSize=15;labelBackgroundColor=none;fillColor=#A8DADC;strokeColor=#457B9D;fontColor=#1D3557;" parent="WIyWlLk6GJQsqaUBKTNV-1" vertex="1">
          <mxGeometry x="1724" y="1170" width="210" height="326" as="geometry">
            <mxRectangle x="130" y="380" width="160" height="26" as="alternateBounds" />
          </mxGeometry>
        </mxCell>
        <mxCell id="9U75RP6Bmi7HWVmoD3fa-10" value="- donationID : string" style="text;html=1;align=left;verticalAlign=middle;whiteSpace=wrap;rounded=0;fontSize=12;spacingTop=6;labelBackgroundColor=none;fontColor=#1D3557;" parent="t_3KVrFBqGaoaHZ3aIhR-126" vertex="1">
          <mxGeometry y="26" width="210" height="20" as="geometry" />
        </mxCell>
        <mxCell id="gEmX9rRlGxYNB2lgslIP-31" value="-donationDate : Date" style="text;html=1;align=left;verticalAlign=middle;whiteSpace=wrap;rounded=0;fontSize=12;spacingTop=6;labelBackgroundColor=none;fontColor=#1D3557;" parent="t_3KVrFBqGaoaHZ3aIhR-126" vertex="1">
          <mxGeometry y="46" width="210" height="20" as="geometry" />
        </mxCell>
        <mxCell id="EEnSZuUMuqlkZW2_UFZi-22" value="-receipt: Receipt" style="text;html=1;align=left;verticalAlign=middle;whiteSpace=wrap;rounded=0;fontSize=12;spacingTop=6;labelBackgroundColor=none;fontColor=#1D3557;" parent="t_3KVrFBqGaoaHZ3aIhR-126" vertex="1">
          <mxGeometry y="66" width="210" height="20" as="geometry" />
        </mxCell>
        <mxCell id="t_3KVrFBqGaoaHZ3aIhR-130" value="" style="line;html=1;strokeWidth=1;align=left;verticalAlign=middle;spacingTop=-1;spacingLeft=3;spacingRight=3;rotatable=0;labelPosition=right;points=[];portConstraint=eastwest;labelBackgroundColor=none;fillColor=#A8DADC;strokeColor=#457B9D;fontColor=#1D3557;" parent="t_3KVrFBqGaoaHZ3aIhR-126" vertex="1">
          <mxGeometry y="86" width="210" height="8" as="geometry" />
        </mxCell>
        <mxCell id="t_3KVrFBqGaoaHZ3aIhR-131" value="+Donation(donationdate) : void" style="text;html=1;align=left;verticalAlign=middle;whiteSpace=wrap;rounded=0;fontSize=12;spacingTop=6;labelBackgroundColor=none;fontColor=#1D3557;" parent="t_3KVrFBqGaoaHZ3aIhR-126" vertex="1">
          <mxGeometry y="94" width="210" height="20" as="geometry" />
        </mxCell>
        <mxCell id="EEnSZuUMuqlkZW2_UFZi-23" value="+sendConfirmationEmail(): boolean" style="text;html=1;align=left;verticalAlign=middle;whiteSpace=wrap;rounded=0;fontSize=12;spacingTop=6;labelBackgroundColor=none;fontColor=#1D3557;" parent="t_3KVrFBqGaoaHZ3aIhR-126" vertex="1">
          <mxGeometry y="114" width="210" height="20" as="geometry" />
        </mxCell>
        <mxCell id="EEnSZuUMuqlkZW2_UFZi-26" value="+getDonationDate():Date" style="text;html=1;align=left;verticalAlign=middle;whiteSpace=wrap;rounded=0;fontSize=12;spacingTop=6;labelBackgroundColor=none;fontColor=#1D3557;" parent="t_3KVrFBqGaoaHZ3aIhR-126" vertex="1">
          <mxGeometry y="134" width="210" height="20" as="geometry" />
        </mxCell>
        <mxCell id="EEnSZuUMuqlkZW2_UFZi-31" value="+setReceiptInfo(Receipt r) : void" style="text;html=1;align=left;verticalAlign=middle;whiteSpace=wrap;rounded=0;fontSize=12;spacingTop=6;labelBackgroundColor=none;fontColor=#1D3557;" parent="t_3KVrFBqGaoaHZ3aIhR-126" vertex="1">
          <mxGeometry y="154" width="210" height="20" as="geometry" />
        </mxCell>
        <mxCell id="EEnSZuUMuqlkZW2_UFZi-29" value="+sendReceiptToDonor(Receipt r) : void" style="text;html=1;align=left;verticalAlign=middle;whiteSpace=wrap;rounded=0;fontSize=12;spacingTop=6;labelBackgroundColor=none;fontColor=#1D3557;" parent="t_3KVrFBqGaoaHZ3aIhR-126" vertex="1">
          <mxGeometry y="174" width="210" height="20" as="geometry" />
        </mxCell>
        <mxCell id="EEnSZuUMuqlkZW2_UFZi-35" value="+displayReceipt(Receipt r) : void" style="text;html=1;align=left;verticalAlign=middle;whiteSpace=wrap;rounded=0;fontSize=12;spacingTop=6;labelBackgroundColor=none;fontColor=#1D3557;" parent="t_3KVrFBqGaoaHZ3aIhR-126" vertex="1">
          <mxGeometry y="194" width="210" height="20" as="geometry" />
        </mxCell>
        <mxCell id="EEnSZuUMuqlkZW2_UFZi-28" value="+exportToFormat(ٌReceipt r) : void" style="text;html=1;align=left;verticalAlign=middle;whiteSpace=wrap;rounded=0;fontSize=12;spacingTop=6;labelBackgroundColor=none;fontColor=#1D3557;" parent="t_3KVrFBqGaoaHZ3aIhR-126" vertex="1">
          <mxGeometry y="214" width="210" height="20" as="geometry" />
        </mxCell>
        <mxCell id="EEnSZuUMuqlkZW2_UFZi-30" value="+getReceiptID(Receipt r) : string" style="text;html=1;align=left;verticalAlign=middle;whiteSpace=wrap;rounded=0;fontSize=12;spacingTop=6;labelBackgroundColor=none;fontColor=#1D3557;" parent="t_3KVrFBqGaoaHZ3aIhR-126" vertex="1">
          <mxGeometry y="234" width="210" height="20" as="geometry" />
        </mxCell>
        <mxCell id="t_3KVrFBqGaoaHZ3aIhR-132" value="Donor" style="swimlane;fontStyle=1;align=center;verticalAlign=top;childLayout=stackLayout;horizontal=1;startSize=26;horizontalStack=0;resizeParent=1;resizeLast=0;collapsible=1;marginBottom=0;rounded=0;shadow=0;strokeWidth=1;fontSize=13;labelBackgroundColor=none;fillColor=#A8DADC;strokeColor=#457B9D;fontColor=#1D3557;" parent="WIyWlLk6GJQsqaUBKTNV-1" vertex="1">
          <mxGeometry x="1026" y="537" width="451" height="296" as="geometry">
            <mxRectangle x="340" y="380" width="170" height="26" as="alternateBounds" />
          </mxGeometry>
        </mxCell>
        <mxCell id="9U75RP6Bmi7HWVmoD3fa-22" value="-donations: List &amp;lt;Donations&amp;gt;" style="text;html=1;align=left;verticalAlign=middle;whiteSpace=wrap;rounded=0;fontSize=12;spacingTop=-1;labelBackgroundColor=none;fontColor=#1D3557;" parent="t_3KVrFBqGaoaHZ3aIhR-132" vertex="1">
          <mxGeometry y="26" width="451" height="20" as="geometry" />
        </mxCell>
        <mxCell id="t_3KVrFBqGaoaHZ3aIhR-135" value="" style="line;html=1;strokeWidth=1;align=left;verticalAlign=middle;spacingTop=-1;spacingLeft=3;spacingRight=3;rotatable=0;labelPosition=right;points=[];portConstraint=eastwest;labelBackgroundColor=none;fillColor=#A8DADC;strokeColor=#457B9D;fontColor=#1D3557;" parent="t_3KVrFBqGaoaHZ3aIhR-132" vertex="1">
          <mxGeometry y="46" width="451" height="8" as="geometry" />
        </mxCell>
        <mxCell id="btWsvQY2q8_8Hk2CBS7h-2" value="+Donor(string us, string p, string e, date bd, gender)" style="text;align=left;verticalAlign=bottom;spacingLeft=0;spacingRight=4;overflow=hidden;rotatable=0;points=[[0,0.5],[1,0.5]];portConstraint=eastwest;rounded=0;shadow=0;html=0;fontSize=12;spacingTop=-12;spacingBottom=-1;labelBackgroundColor=none;fontColor=#1D3557;" parent="t_3KVrFBqGaoaHZ3aIhR-132" vertex="1">
          <mxGeometry y="54" width="451" height="22" as="geometry" />
        </mxCell>
        <mxCell id="9U75RP6Bmi7HWVmoD3fa-19" value="+getDonorByEmail(string email) : Donor" style="text;html=1;align=left;verticalAlign=middle;whiteSpace=wrap;rounded=0;fontSize=12;spacingTop=-1;labelBackgroundColor=none;fontColor=#1D3557;" parent="t_3KVrFBqGaoaHZ3aIhR-132" vertex="1">
          <mxGeometry y="76" width="451" height="20" as="geometry" />
        </mxCell>
        <mxCell id="t_3KVrFBqGaoaHZ3aIhR-136" value="+requesttoVolunteer(Volunteer Request) : void" style="text;html=1;align=left;verticalAlign=middle;whiteSpace=wrap;rounded=0;fontSize=12;spacingTop=6;labelBackgroundColor=none;fontColor=#1D3557;" parent="t_3KVrFBqGaoaHZ3aIhR-132" vertex="1">
          <mxGeometry y="96" width="451" height="20" as="geometry" />
        </mxCell>
        <mxCell id="l-ATcEgu00QKDk7hao4Y-4" value="+Donate(donationdate) : Donation" style="text;html=1;align=left;verticalAlign=middle;whiteSpace=wrap;rounded=0;fontSize=12;spacingTop=6;labelBackgroundColor=none;fontColor=#1D3557;" parent="t_3KVrFBqGaoaHZ3aIhR-132" vertex="1">
          <mxGeometry y="116" width="451" height="20" as="geometry" />
        </mxCell>
        <mxCell id="l-ATcEgu00QKDk7hao4Y-8" value="+viewDonations() : List&amp;lt;Donation&amp;gt;&amp;nbsp;" style="text;html=1;align=left;verticalAlign=middle;whiteSpace=wrap;rounded=0;fontSize=12;spacingTop=6;labelBackgroundColor=none;fontColor=#1D3557;" parent="t_3KVrFBqGaoaHZ3aIhR-132" vertex="1">
          <mxGeometry y="136" width="451" height="20" as="geometry" />
        </mxCell>
        <mxCell id="l-ATcEgu00QKDk7hao4Y-11" value="+calcTotalValueDonated() : float" style="text;html=1;align=left;verticalAlign=middle;whiteSpace=wrap;rounded=0;fontSize=12;spacingTop=6;labelBackgroundColor=none;fontColor=#1D3557;" parent="t_3KVrFBqGaoaHZ3aIhR-132" vertex="1">
          <mxGeometry y="156" width="451" height="20" as="geometry" />
        </mxCell>
        <mxCell id="06Cd4AgThaGGWCjbHUdQ-5" value="+getTotalDonations() : int" style="text;html=1;align=left;verticalAlign=middle;whiteSpace=wrap;rounded=0;fontSize=12;spacingTop=6;labelBackgroundColor=none;fontColor=#1D3557;" parent="t_3KVrFBqGaoaHZ3aIhR-132" vertex="1">
          <mxGeometry y="176" width="451" height="20" as="geometry" />
        </mxCell>
        <mxCell id="06Cd4AgThaGGWCjbHUdQ-6" value="+filterDonations(string filter) : List&amp;lt;Donation&amp;gt;" style="text;html=1;align=left;verticalAlign=middle;whiteSpace=wrap;rounded=0;fontSize=12;spacingTop=6;labelBackgroundColor=none;fontColor=#1D3557;" parent="t_3KVrFBqGaoaHZ3aIhR-132" vertex="1">
          <mxGeometry y="196" width="451" height="20" as="geometry" />
        </mxCell>
        <mxCell id="t_3KVrFBqGaoaHZ3aIhR-137" value="WarehouseCoordinator" style="swimlane;fontStyle=1;align=center;verticalAlign=top;childLayout=stackLayout;horizontal=1;startSize=26;horizontalStack=0;resizeParent=1;resizeLast=0;collapsible=1;marginBottom=0;rounded=0;shadow=0;strokeWidth=1;fontSize=15;labelBackgroundColor=none;fillColor=#A8DADC;strokeColor=#457B9D;fontColor=#1D3557;" parent="WIyWlLk6GJQsqaUBKTNV-1" vertex="1">
          <mxGeometry x="1154" y="923" width="377" height="174" as="geometry">
            <mxRectangle x="550" y="140" width="160" height="26" as="alternateBounds" />
          </mxGeometry>
        </mxCell>
        <mxCell id="t_3KVrFBqGaoaHZ3aIhR-141" value="" style="line;html=1;strokeWidth=1;align=left;verticalAlign=middle;spacingTop=-1;spacingLeft=3;spacingRight=3;rotatable=0;labelPosition=right;points=[];portConstraint=eastwest;labelBackgroundColor=none;fillColor=#A8DADC;strokeColor=#457B9D;fontColor=#1D3557;" parent="t_3KVrFBqGaoaHZ3aIhR-137" vertex="1">
          <mxGeometry y="26" width="377" height="20" as="geometry" />
        </mxCell>
        <mxCell id="06Cd4AgThaGGWCjbHUdQ-21" value="+placeOrder(supplierID, List&amp;lt;Item&amp;gt;) : Order" style="text;html=1;align=left;verticalAlign=middle;whiteSpace=wrap;rounded=0;fontSize=12;spacingTop=-17;spacingBottom=-22;labelBackgroundColor=none;fontColor=#1D3557;" parent="t_3KVrFBqGaoaHZ3aIhR-137" vertex="1">
          <mxGeometry y="46" width="377" height="2" as="geometry" />
        </mxCell>
        <mxCell id="t_3KVrFBqGaoaHZ3aIhR-150" value="Program" style="swimlane;fontStyle=1;align=center;verticalAlign=top;childLayout=stackLayout;horizontal=1;startSize=26;horizontalStack=0;resizeParent=1;resizeLast=0;collapsible=1;marginBottom=0;rounded=0;shadow=0;strokeWidth=1;fontSize=15;labelBackgroundColor=none;fillColor=#A8DADC;strokeColor=#457B9D;fontColor=#1D3557;" parent="WIyWlLk6GJQsqaUBKTNV-1" vertex="1">
          <mxGeometry x="1011" y="1197" width="220" height="326" as="geometry">
            <mxRectangle x="130" y="380" width="160" height="26" as="alternateBounds" />
          </mxGeometry>
        </mxCell>
        <mxCell id="gEmX9rRlGxYNB2lgslIP-84" value="- programID : int" style="text;html=1;align=left;verticalAlign=middle;whiteSpace=wrap;rounded=0;fontSize=12;spacingTop=6;labelBackgroundColor=none;fontColor=#1D3557;" parent="t_3KVrFBqGaoaHZ3aIhR-150" vertex="1">
          <mxGeometry y="26" width="220" height="20" as="geometry" />
        </mxCell>
        <mxCell id="t_3KVrFBqGaoaHZ3aIhR-151" value="- name : string" style="text;html=1;align=left;verticalAlign=middle;whiteSpace=wrap;rounded=0;fontSize=12;spacingTop=6;labelBackgroundColor=none;fontColor=#1D3557;" parent="t_3KVrFBqGaoaHZ3aIhR-150" vertex="1">
          <mxGeometry y="46" width="220" height="20" as="geometry" />
        </mxCell>
        <mxCell id="t_3KVrFBqGaoaHZ3aIhR-152" value="- items : List &amp;lt;Item&amp;gt;" style="text;html=1;align=left;verticalAlign=middle;whiteSpace=wrap;rounded=0;fontSize=12;spacingTop=6;labelBackgroundColor=none;fontColor=#1D3557;" parent="t_3KVrFBqGaoaHZ3aIhR-150" vertex="1">
          <mxGeometry y="66" width="220" height="20" as="geometry" />
        </mxCell>
        <mxCell id="t_3KVrFBqGaoaHZ3aIhR-153" value="" style="line;html=1;strokeWidth=1;align=left;verticalAlign=middle;spacingTop=-1;spacingLeft=3;spacingRight=3;rotatable=0;labelPosition=right;points=[];portConstraint=eastwest;labelBackgroundColor=none;fillColor=#A8DADC;strokeColor=#457B9D;fontColor=#1D3557;" parent="t_3KVrFBqGaoaHZ3aIhR-150" vertex="1">
          <mxGeometry y="86" width="220" height="8" as="geometry" />
        </mxCell>
        <mxCell id="t_3KVrFBqGaoaHZ3aIhR-154" value="+Program(string n, List&amp;lt;Item&amp;gt;)" style="text;html=1;align=left;verticalAlign=middle;whiteSpace=wrap;rounded=0;fontSize=12;spacingTop=6;labelBackgroundColor=none;fontColor=#1D3557;" parent="t_3KVrFBqGaoaHZ3aIhR-150" vertex="1">
          <mxGeometry y="94" width="220" height="20" as="geometry" />
        </mxCell>
        <mxCell id="06Cd4AgThaGGWCjbHUdQ-9" value="+setName(name) : void" style="text;html=1;align=left;verticalAlign=middle;whiteSpace=wrap;rounded=0;fontSize=12;spacingTop=6;labelBackgroundColor=none;fontColor=#1D3557;" parent="t_3KVrFBqGaoaHZ3aIhR-150" vertex="1">
          <mxGeometry y="114" width="220" height="20" as="geometry" />
        </mxCell>
        <mxCell id="t_3KVrFBqGaoaHZ3aIhR-157" value="+getItems() : List &amp;lt;Item&amp;gt;" style="text;html=1;align=left;verticalAlign=middle;whiteSpace=wrap;rounded=0;fontSize=12;spacingTop=6;labelBackgroundColor=none;fontColor=#1D3557;" parent="t_3KVrFBqGaoaHZ3aIhR-150" vertex="1">
          <mxGeometry y="134" width="220" height="20" as="geometry" />
        </mxCell>
        <mxCell id="t_3KVrFBqGaoaHZ3aIhR-186" value="+getName() : string" style="text;html=1;align=left;verticalAlign=middle;whiteSpace=wrap;rounded=0;fontSize=12;spacingTop=6;labelBackgroundColor=none;fontColor=#1D3557;" parent="t_3KVrFBqGaoaHZ3aIhR-150" vertex="1">
          <mxGeometry y="154" width="220" height="20" as="geometry" />
        </mxCell>
        <mxCell id="06Cd4AgThaGGWCjbHUdQ-0" value="+addItem(item : Item) : void" style="text;html=1;align=left;verticalAlign=middle;whiteSpace=wrap;rounded=0;fontSize=12;spacingTop=6;labelBackgroundColor=none;fontColor=#1D3557;" parent="t_3KVrFBqGaoaHZ3aIhR-150" vertex="1">
          <mxGeometry y="174" width="220" height="20" as="geometry" />
        </mxCell>
        <mxCell id="06Cd4AgThaGGWCjbHUdQ-7" value="+viewItems() : List&amp;lt;Item&amp;gt;" style="text;html=1;align=left;verticalAlign=middle;whiteSpace=wrap;rounded=0;fontSize=12;spacingTop=6;labelBackgroundColor=none;fontColor=#1D3557;" parent="t_3KVrFBqGaoaHZ3aIhR-150" vertex="1">
          <mxGeometry y="194" width="220" height="20" as="geometry" />
        </mxCell>
        <mxCell id="06Cd4AgThaGGWCjbHUdQ-2" value="+sortItems() : List&amp;lt;Item&amp;gt;" style="text;html=1;align=left;verticalAlign=middle;whiteSpace=wrap;rounded=0;fontSize=12;spacingTop=6;labelBackgroundColor=none;fontColor=#1D3557;" parent="t_3KVrFBqGaoaHZ3aIhR-150" vertex="1">
          <mxGeometry y="214" width="220" height="20" as="geometry" />
        </mxCell>
        <mxCell id="06Cd4AgThaGGWCjbHUdQ-4" value="+searchItem(itemID): Item&amp;nbsp;" style="text;html=1;align=left;verticalAlign=middle;whiteSpace=wrap;rounded=0;fontSize=12;spacingTop=6;labelBackgroundColor=none;fontColor=#1D3557;" parent="t_3KVrFBqGaoaHZ3aIhR-150" vertex="1">
          <mxGeometry y="234" width="220" height="20" as="geometry" />
        </mxCell>
        <mxCell id="06Cd4AgThaGGWCjbHUdQ-1" value="+calcTotalPrice() : double" style="text;html=1;align=left;verticalAlign=middle;whiteSpace=wrap;rounded=0;fontSize=12;spacingTop=6;labelBackgroundColor=none;fontColor=#1D3557;" parent="t_3KVrFBqGaoaHZ3aIhR-150" vertex="1">
          <mxGeometry y="254" width="220" height="20" as="geometry" />
        </mxCell>
        <mxCell id="06Cd4AgThaGGWCjbHUdQ-8" value="+removeItem(itemID) : void" style="text;html=1;align=left;verticalAlign=middle;whiteSpace=wrap;rounded=0;fontSize=12;spacingTop=6;labelBackgroundColor=none;fontColor=#1D3557;" parent="t_3KVrFBqGaoaHZ3aIhR-150" vertex="1">
          <mxGeometry y="274" width="220" height="20" as="geometry" />
        </mxCell>
        <mxCell id="t_3KVrFBqGaoaHZ3aIhR-158" value="Item" style="swimlane;fontStyle=1;align=center;verticalAlign=top;childLayout=stackLayout;horizontal=1;startSize=26;horizontalStack=0;resizeParent=1;resizeLast=0;collapsible=1;marginBottom=0;rounded=0;shadow=0;strokeWidth=1;fontSize=15;labelBackgroundColor=none;fillColor=#A8DADC;strokeColor=#457B9D;fontColor=#1D3557;" parent="WIyWlLk6GJQsqaUBKTNV-1" vertex="1">
          <mxGeometry x="1321" y="1212" width="200" height="241" as="geometry">
            <mxRectangle x="340" y="380" width="170" height="26" as="alternateBounds" />
          </mxGeometry>
        </mxCell>
        <mxCell id="gEmX9rRlGxYNB2lgslIP-113" value="- itemID : int" style="text;html=1;align=left;verticalAlign=middle;whiteSpace=wrap;rounded=0;fontSize=12;spacingTop=6;labelBackgroundColor=none;fontColor=#1D3557;" parent="t_3KVrFBqGaoaHZ3aIhR-158" vertex="1">
          <mxGeometry y="26" width="200" height="20" as="geometry" />
        </mxCell>
        <mxCell id="t_3KVrFBqGaoaHZ3aIhR-159" value="- name : string" style="text;html=1;align=left;verticalAlign=middle;whiteSpace=wrap;rounded=0;fontSize=12;spacingTop=6;labelBackgroundColor=none;fontColor=#1D3557;" parent="t_3KVrFBqGaoaHZ3aIhR-158" vertex="1">
          <mxGeometry y="46" width="200" height="20" as="geometry" />
        </mxCell>
        <mxCell id="t_3KVrFBqGaoaHZ3aIhR-160" value="- description : string" style="text;html=1;align=left;verticalAlign=middle;whiteSpace=wrap;rounded=0;fontSize=12;spacingTop=6;labelBackgroundColor=none;fontColor=#1D3557;" parent="t_3KVrFBqGaoaHZ3aIhR-158" vertex="1">
          <mxGeometry y="66" width="200" height="20" as="geometry" />
        </mxCell>
        <mxCell id="t_3KVrFBqGaoaHZ3aIhR-161" value="- cost : float" style="text;html=1;align=left;verticalAlign=middle;whiteSpace=wrap;rounded=0;fontSize=12;spacingTop=6;labelBackgroundColor=none;fontColor=#1D3557;" parent="t_3KVrFBqGaoaHZ3aIhR-158" vertex="1">
          <mxGeometry y="86" width="200" height="20" as="geometry" />
        </mxCell>
        <mxCell id="t_3KVrFBqGaoaHZ3aIhR-162" value="- quantity : int" style="text;html=1;align=left;verticalAlign=middle;whiteSpace=wrap;rounded=0;fontSize=12;spacingTop=6;labelBackgroundColor=none;fontColor=#1D3557;" parent="t_3KVrFBqGaoaHZ3aIhR-158" vertex="1">
          <mxGeometry y="106" width="200" height="20" as="geometry" />
        </mxCell>
        <mxCell id="t_3KVrFBqGaoaHZ3aIhR-163" value="" style="line;html=1;strokeWidth=1;align=left;verticalAlign=middle;spacingTop=-1;spacingLeft=3;spacingRight=3;rotatable=0;labelPosition=right;points=[];portConstraint=eastwest;labelBackgroundColor=none;fillColor=#A8DADC;strokeColor=#457B9D;fontColor=#1D3557;" parent="t_3KVrFBqGaoaHZ3aIhR-158" vertex="1">
          <mxGeometry y="126" width="200" height="8" as="geometry" />
        </mxCell>
        <mxCell id="t_3KVrFBqGaoaHZ3aIhR-164" value="+Item(string n, string d, float c, int q)&amp;nbsp;" style="text;html=1;align=left;verticalAlign=middle;whiteSpace=wrap;rounded=0;fontSize=12;spacingTop=6;labelBackgroundColor=none;fontColor=#1D3557;" parent="t_3KVrFBqGaoaHZ3aIhR-158" vertex="1">
          <mxGeometry y="134" width="200" height="14" as="geometry" />
        </mxCell>
        <mxCell id="t_3KVrFBqGaoaHZ3aIhR-165" value="+getName() : string" style="text;html=1;align=left;verticalAlign=middle;whiteSpace=wrap;rounded=0;fontSize=12;spacingTop=6;spacingBottom=-13;labelBackgroundColor=none;fontColor=#1D3557;" parent="t_3KVrFBqGaoaHZ3aIhR-158" vertex="1">
          <mxGeometry y="148" width="200" height="14" as="geometry" />
        </mxCell>
        <mxCell id="t_3KVrFBqGaoaHZ3aIhR-166" value="+getCost() :" style="text;html=1;align=left;verticalAlign=middle;whiteSpace=wrap;rounded=0;fontSize=12;spacingTop=6;spacingBottom=-12;labelBackgroundColor=none;fontColor=#1D3557;" parent="t_3KVrFBqGaoaHZ3aIhR-158" vertex="1">
          <mxGeometry y="162" width="200" height="14" as="geometry" />
        </mxCell>
        <mxCell id="ZKvT6UMc_dhrCHVvAy9u-6" value="+editItem() : void" style="text;html=1;align=left;verticalAlign=middle;whiteSpace=wrap;rounded=0;fontSize=12;spacingTop=6;spacingBottom=-12;labelBackgroundColor=none;fontColor=#1D3557;" parent="t_3KVrFBqGaoaHZ3aIhR-158" vertex="1">
          <mxGeometry y="176" width="200" height="14" as="geometry" />
        </mxCell>
        <mxCell id="t_3KVrFBqGaoaHZ3aIhR-167" value="+getQuantity() : int" style="text;html=1;align=left;verticalAlign=middle;whiteSpace=wrap;rounded=0;fontSize=12;spacingTop=6;spacingBottom=-12;labelBackgroundColor=none;fontColor=#1D3557;" parent="t_3KVrFBqGaoaHZ3aIhR-158" vertex="1">
          <mxGeometry y="190" width="200" height="14" as="geometry" />
        </mxCell>
        <mxCell id="t_3KVrFBqGaoaHZ3aIhR-168" value="+getDescription() : string" style="text;html=1;align=left;verticalAlign=middle;whiteSpace=wrap;rounded=0;fontSize=12;spacingTop=6;spacingBottom=-13;labelBackgroundColor=none;fontColor=#1D3557;" parent="t_3KVrFBqGaoaHZ3aIhR-158" vertex="1">
          <mxGeometry y="204" width="200" height="14" as="geometry" />
        </mxCell>
        <mxCell id="t_3KVrFBqGaoaHZ3aIhR-169" value="" style="endArrow=diamondThin;endFill=0;endSize=24;html=1;rounded=0;entryX=1;entryY=0.5;entryDx=0;entryDy=0;exitX=0;exitY=0.25;exitDx=0;exitDy=0;labelBackgroundColor=none;strokeColor=#457B9D;fontColor=default;" parent="WIyWlLk6GJQsqaUBKTNV-1" source="t_3KVrFBqGaoaHZ3aIhR-161" target="t_3KVrFBqGaoaHZ3aIhR-154" edge="1">
          <mxGeometry width="160" relative="1" as="geometry">
            <mxPoint x="1011" y="1157" as="sourcePoint" />
            <mxPoint x="1171" y="1157" as="targetPoint" />
          </mxGeometry>
        </mxCell>
        <mxCell id="t_3KVrFBqGaoaHZ3aIhR-173" value="" style="endArrow=block;endSize=16;endFill=0;html=1;rounded=0;entryX=0.5;entryY=1;entryDx=0;entryDy=0;edgeStyle=orthogonalEdgeStyle;labelBackgroundColor=none;strokeColor=#457B9D;fontColor=default;" parent="WIyWlLk6GJQsqaUBKTNV-1" edge="1">
          <mxGeometry width="160" relative="1" as="geometry">
            <mxPoint x="865" y="896" as="sourcePoint" />
            <mxPoint x="874.5699999999999" y="702" as="targetPoint" />
          </mxGeometry>
        </mxCell>
        <mxCell id="t_3KVrFBqGaoaHZ3aIhR-175" value="" style="endArrow=none;html=1;edgeStyle=orthogonalEdgeStyle;rounded=0;entryX=0.5;entryY=0;entryDx=0;entryDy=0;exitX=0.5;exitY=0;exitDx=0;exitDy=0;labelBackgroundColor=none;strokeColor=#457B9D;fontColor=default;" parent="WIyWlLk6GJQsqaUBKTNV-1" source="t_3KVrFBqGaoaHZ3aIhR-114" target="t_3KVrFBqGaoaHZ3aIhR-137" edge="1">
          <mxGeometry relative="1" as="geometry">
            <mxPoint x="734" y="907" as="sourcePoint" />
            <mxPoint x="1037.9999999999998" y="897" as="targetPoint" />
            <Array as="points">
              <mxPoint x="734" y="947" />
              <mxPoint x="734" y="897" />
              <mxPoint x="1242" y="897" />
            </Array>
          </mxGeometry>
        </mxCell>
        <mxCell id="t_3KVrFBqGaoaHZ3aIhR-187" value="1" style="text;html=1;align=center;verticalAlign=middle;whiteSpace=wrap;rounded=0;fontSize=15;spacingLeft=-9;fontStyle=1;labelBackgroundColor=none;fontColor=#1D3557;" parent="WIyWlLk6GJQsqaUBKTNV-1" vertex="1">
          <mxGeometry x="1217" y="1277" width="50" height="20" as="geometry" />
        </mxCell>
        <mxCell id="t_3KVrFBqGaoaHZ3aIhR-188" value="*" style="text;html=1;align=center;verticalAlign=middle;whiteSpace=wrap;rounded=0;fontSize=15;spacingLeft=8;fontStyle=1;labelBackgroundColor=none;fontColor=#1D3557;" parent="WIyWlLk6GJQsqaUBKTNV-1" vertex="1">
          <mxGeometry x="1291" y="1287" width="30" height="10" as="geometry" />
        </mxCell>
        <mxCell id="gEmX9rRlGxYNB2lgslIP-3" value="&lt;&lt;abstract&gt;&gt;&#xa;User" style="swimlane;fontStyle=1;align=center;verticalAlign=top;childLayout=stackLayout;horizontal=1;startSize=42;horizontalStack=0;resizeParent=1;resizeLast=0;collapsible=1;marginBottom=0;rounded=0;shadow=0;strokeWidth=1;fontSize=15;labelBackgroundColor=none;fillColor=#A8DADC;strokeColor=#457B9D;fontColor=#1D3557;" parent="WIyWlLk6GJQsqaUBKTNV-1" vertex="1">
          <mxGeometry x="1078" y="126" width="210" height="200" as="geometry">
            <mxRectangle x="230" y="140" width="160" height="26" as="alternateBounds" />
          </mxGeometry>
        </mxCell>
        <mxCell id="EEnSZuUMuqlkZW2_UFZi-32" value="-userID : string" style="text;align=left;verticalAlign=top;spacingLeft=1;spacingRight=4;overflow=hidden;rotatable=0;points=[[0,0.5],[1,0.5]];portConstraint=eastwest;fontSize=12;whiteSpace=wrap;html=1;spacingBottom=-4;labelBackgroundColor=none;fontColor=#1D3557;" parent="gEmX9rRlGxYNB2lgslIP-3" vertex="1">
          <mxGeometry y="42" width="210" height="14" as="geometry" />
        </mxCell>
        <mxCell id="gEmX9rRlGxYNB2lgslIP-169" value="- username : string" style="text;align=left;verticalAlign=top;spacingLeft=1;spacingRight=4;overflow=hidden;rotatable=0;points=[[0,0.5],[1,0.5]];portConstraint=eastwest;fontSize=12;whiteSpace=wrap;html=1;spacingBottom=-4;labelBackgroundColor=none;fontColor=#1D3557;" parent="gEmX9rRlGxYNB2lgslIP-3" vertex="1">
          <mxGeometry y="56" width="210" height="14" as="geometry" />
        </mxCell>
        <mxCell id="gEmX9rRlGxYNB2lgslIP-170" value="-usertype: boolean" style="text;align=left;verticalAlign=top;spacingLeft=1;spacingRight=4;overflow=hidden;rotatable=0;points=[[0,0.5],[1,0.5]];portConstraint=eastwest;fontSize=12;whiteSpace=wrap;html=1;spacingBottom=-4;labelBackgroundColor=none;fontColor=#1D3557;" parent="gEmX9rRlGxYNB2lgslIP-3" vertex="1">
          <mxGeometry y="70" width="210" height="14" as="geometry" />
        </mxCell>
        <mxCell id="EEnSZuUMuqlkZW2_UFZi-1" value="- birthdate : date" style="text;align=left;verticalAlign=top;spacingLeft=1;spacingRight=4;overflow=hidden;rotatable=0;points=[[0,0.5],[1,0.5]];portConstraint=eastwest;fontSize=12;whiteSpace=wrap;html=1;spacingBottom=-4;labelBackgroundColor=none;fontColor=#1D3557;" parent="gEmX9rRlGxYNB2lgslIP-3" vertex="1">
          <mxGeometry y="84" width="210" height="14" as="geometry" />
        </mxCell>
        <mxCell id="gEmX9rRlGxYNB2lgslIP-171" value="- email : string" style="text;align=left;verticalAlign=top;spacingLeft=1;spacingRight=4;overflow=hidden;rotatable=0;points=[[0,0.5],[1,0.5]];portConstraint=eastwest;fontSize=12;whiteSpace=wrap;html=1;spacingBottom=-4;labelBackgroundColor=none;fontColor=#1D3557;" parent="gEmX9rRlGxYNB2lgslIP-3" vertex="1">
          <mxGeometry y="98" width="210" height="14" as="geometry" />
        </mxCell>
        <mxCell id="t_3KVrFBqGaoaHZ3aIhR-60" value="- password : string" style="text;html=1;whiteSpace=wrap;fontSize=12;labelBackgroundColor=none;fontColor=#1D3557;" parent="gEmX9rRlGxYNB2lgslIP-3" vertex="1">
          <mxGeometry y="112" width="210" height="20" as="geometry" />
        </mxCell>
        <mxCell id="gEmX9rRlGxYNB2lgslIP-172" value="- phoneNumber : string" style="text;align=left;verticalAlign=top;spacingLeft=1;spacingRight=4;overflow=hidden;rotatable=0;points=[[0,0.5],[1,0.5]];portConstraint=eastwest;fontSize=12;whiteSpace=wrap;html=1;spacingBottom=-4;labelBackgroundColor=none;fontColor=#1D3557;" parent="gEmX9rRlGxYNB2lgslIP-3" vertex="1">
          <mxGeometry y="132" width="210" height="14" as="geometry" />
        </mxCell>
        <mxCell id="gEmX9rRlGxYNB2lgslIP-173" value="- gender : boolean" style="text;align=left;verticalAlign=top;spacingLeft=1;spacingRight=4;overflow=hidden;rotatable=0;points=[[0,0.5],[1,0.5]];portConstraint=eastwest;fontSize=12;whiteSpace=wrap;html=1;spacingBottom=-4;labelBackgroundColor=none;fontColor=#1D3557;" parent="gEmX9rRlGxYNB2lgslIP-3" vertex="1">
          <mxGeometry y="146" width="210" height="14" as="geometry" />
        </mxCell>
        <mxCell id="gEmX9rRlGxYNB2lgslIP-4" value="" style="line;html=1;strokeWidth=1;align=left;verticalAlign=middle;spacingTop=-1;spacingLeft=3;spacingRight=3;rotatable=0;labelPosition=right;points=[];portConstraint=eastwest;labelBackgroundColor=none;fillColor=#A8DADC;strokeColor=#457B9D;fontColor=#1D3557;" parent="gEmX9rRlGxYNB2lgslIP-3" vertex="1">
          <mxGeometry y="160" width="210" height="40" as="geometry" />
        </mxCell>
        <mxCell id="gEmX9rRlGxYNB2lgslIP-10" value="Distributor" style="swimlane;fontStyle=1;align=center;verticalAlign=top;childLayout=stackLayout;horizontal=1;startSize=26;horizontalStack=0;resizeParent=1;resizeLast=0;collapsible=1;marginBottom=0;rounded=0;shadow=0;strokeWidth=1;fontSize=15;labelBackgroundColor=none;fillColor=#A8DADC;strokeColor=#457B9D;fontColor=#1D3557;" parent="WIyWlLk6GJQsqaUBKTNV-1" vertex="1">
          <mxGeometry x="941" y="1644" width="210" height="214" as="geometry">
            <mxRectangle x="130" y="380" width="160" height="26" as="alternateBounds" />
          </mxGeometry>
        </mxCell>
        <mxCell id="gEmX9rRlGxYNB2lgslIP-83" value="- distributorID : int" style="text;html=1;align=left;verticalAlign=middle;whiteSpace=wrap;rounded=0;fontSize=12;spacingTop=6;labelBackgroundColor=none;fontColor=#1D3557;" parent="gEmX9rRlGxYNB2lgslIP-10" vertex="1">
          <mxGeometry y="26" width="210" height="20" as="geometry" />
        </mxCell>
        <mxCell id="gEmX9rRlGxYNB2lgslIP-13" value="- serviceArea : string" style="text;html=1;align=left;verticalAlign=middle;whiteSpace=wrap;rounded=0;fontSize=12;spacingTop=6;labelBackgroundColor=none;fontColor=#1D3557;" parent="gEmX9rRlGxYNB2lgslIP-10" vertex="1">
          <mxGeometry y="46" width="210" height="20" as="geometry" />
        </mxCell>
        <mxCell id="gEmX9rRlGxYNB2lgslIP-45" value="- itemsDistributed : List&amp;lt;Item&amp;gt;" style="text;html=1;align=left;verticalAlign=middle;whiteSpace=wrap;rounded=0;fontSize=12;spacingTop=6;labelBackgroundColor=none;fontColor=#1D3557;" parent="gEmX9rRlGxYNB2lgslIP-10" vertex="1">
          <mxGeometry y="66" width="210" height="20" as="geometry" />
        </mxCell>
        <mxCell id="gEmX9rRlGxYNB2lgslIP-14" value="" style="line;html=1;strokeWidth=1;align=left;verticalAlign=middle;spacingTop=-1;spacingLeft=3;spacingRight=3;rotatable=0;labelPosition=right;points=[];portConstraint=eastwest;labelBackgroundColor=none;fillColor=#A8DADC;strokeColor=#457B9D;fontColor=#1D3557;" parent="gEmX9rRlGxYNB2lgslIP-10" vertex="1">
          <mxGeometry y="86" width="210" height="8" as="geometry" />
        </mxCell>
        <mxCell id="gEmX9rRlGxYNB2lgslIP-157" value="+getServiceArea() : string" style="text;html=1;align=left;verticalAlign=middle;whiteSpace=wrap;rounded=0;fontSize=12;spacingTop=6;labelBackgroundColor=none;fontColor=#1D3557;" parent="gEmX9rRlGxYNB2lgslIP-10" vertex="1">
          <mxGeometry y="94" width="210" height="20" as="geometry" />
        </mxCell>
        <mxCell id="gEmX9rRlGxYNB2lgslIP-158" value="+getitemsDistributed() : List&amp;lt;Item&amp;gt;" style="text;html=1;align=left;verticalAlign=middle;whiteSpace=wrap;rounded=0;fontSize=12;spacingTop=6;labelBackgroundColor=none;fontColor=#1D3557;" parent="gEmX9rRlGxYNB2lgslIP-10" vertex="1">
          <mxGeometry y="114" width="210" height="20" as="geometry" />
        </mxCell>
        <mxCell id="gEmX9rRlGxYNB2lgslIP-18" value="Supplier" style="swimlane;fontStyle=1;align=center;verticalAlign=top;childLayout=stackLayout;horizontal=1;startSize=26;horizontalStack=0;resizeParent=1;resizeLast=0;collapsible=1;marginBottom=0;rounded=0;shadow=0;strokeWidth=1;fontSize=15;labelBackgroundColor=none;fillColor=#A8DADC;strokeColor=#457B9D;fontColor=#1D3557;" parent="WIyWlLk6GJQsqaUBKTNV-1" vertex="1">
          <mxGeometry x="641" y="1647" width="210" height="214" as="geometry">
            <mxRectangle x="130" y="380" width="160" height="26" as="alternateBounds" />
          </mxGeometry>
        </mxCell>
        <mxCell id="gEmX9rRlGxYNB2lgslIP-82" value="-supplierID : int" style="text;html=1;align=left;verticalAlign=middle;whiteSpace=wrap;rounded=0;fontSize=12;spacingTop=6;labelBackgroundColor=none;fontColor=#1D3557;" parent="gEmX9rRlGxYNB2lgslIP-18" vertex="1">
          <mxGeometry y="26" width="210" height="20" as="geometry" />
        </mxCell>
        <mxCell id="gEmX9rRlGxYNB2lgslIP-21" value="- leadTimeInWeeks : int&amp;nbsp;" style="text;html=1;align=left;verticalAlign=middle;whiteSpace=wrap;rounded=0;fontSize=12;spacingTop=6;labelBackgroundColor=none;fontColor=#1D3557;" parent="gEmX9rRlGxYNB2lgslIP-18" vertex="1">
          <mxGeometry y="46" width="210" height="20" as="geometry" />
        </mxCell>
        <mxCell id="gEmX9rRlGxYNB2lgslIP-22" value="" style="line;html=1;strokeWidth=1;align=left;verticalAlign=middle;spacingTop=-1;spacingLeft=3;spacingRight=3;rotatable=0;labelPosition=right;points=[];portConstraint=eastwest;labelBackgroundColor=none;fillColor=#A8DADC;strokeColor=#457B9D;fontColor=#1D3557;" parent="gEmX9rRlGxYNB2lgslIP-18" vertex="1">
          <mxGeometry y="66" width="210" height="8" as="geometry" />
        </mxCell>
        <mxCell id="gEmX9rRlGxYNB2lgslIP-111" value="+getLeadTime() : time" style="text;html=1;align=left;verticalAlign=middle;whiteSpace=wrap;rounded=0;fontSize=12;spacingTop=6;labelBackgroundColor=none;fontColor=#1D3557;" parent="gEmX9rRlGxYNB2lgslIP-18" vertex="1">
          <mxGeometry y="74" width="210" height="20" as="geometry" />
        </mxCell>
        <mxCell id="E7Js1CmvD6nsmvyOke-_-0" value="+receiveOrder(order: Order) : void" style="text;html=1;align=left;verticalAlign=middle;whiteSpace=wrap;rounded=0;fontSize=12;spacingTop=6;labelBackgroundColor=none;fontColor=#1D3557;" parent="gEmX9rRlGxYNB2lgslIP-18" vertex="1">
          <mxGeometry y="94" width="210" height="20" as="geometry" />
        </mxCell>
        <mxCell id="E7Js1CmvD6nsmvyOke-_-41" value="+updateOrderStatus() : void" style="text;html=1;align=left;verticalAlign=middle;whiteSpace=wrap;rounded=0;fontSize=12;spacingTop=6;labelBackgroundColor=none;fontColor=#1D3557;" parent="gEmX9rRlGxYNB2lgslIP-18" vertex="1">
          <mxGeometry y="114" width="210" height="20" as="geometry" />
        </mxCell>
        <mxCell id="gEmX9rRlGxYNB2lgslIP-47" value="Partnership" style="swimlane;fontStyle=1;align=center;verticalAlign=top;childLayout=stackLayout;horizontal=1;startSize=26;horizontalStack=0;resizeParent=1;resizeLast=0;collapsible=1;marginBottom=0;rounded=0;shadow=0;strokeWidth=1;fontSize=15;labelBackgroundColor=none;fillColor=#A8DADC;strokeColor=#457B9D;fontColor=#1D3557;" parent="WIyWlLk6GJQsqaUBKTNV-1" vertex="1">
          <mxGeometry x="741" y="1167" width="240" height="414" as="geometry">
            <mxRectangle x="130" y="380" width="160" height="26" as="alternateBounds" />
          </mxGeometry>
        </mxCell>
        <mxCell id="gEmX9rRlGxYNB2lgslIP-48" value="- partnershipID : int" style="text;html=1;align=left;verticalAlign=middle;whiteSpace=wrap;rounded=0;fontSize=12;spacingTop=6;labelBackgroundColor=none;fontColor=#1D3557;" parent="gEmX9rRlGxYNB2lgslIP-47" vertex="1">
          <mxGeometry y="26" width="240" height="20" as="geometry" />
        </mxCell>
        <mxCell id="gEmX9rRlGxYNB2lgslIP-115" value="- name : string" style="text;html=1;align=left;verticalAlign=middle;whiteSpace=wrap;rounded=0;fontSize=12;spacingTop=6;labelBackgroundColor=none;fontColor=#1D3557;" parent="gEmX9rRlGxYNB2lgslIP-47" vertex="1">
          <mxGeometry y="46" width="240" height="20" as="geometry" />
        </mxCell>
        <mxCell id="gEmX9rRlGxYNB2lgslIP-49" value="- location : string" style="text;html=1;align=left;verticalAlign=middle;whiteSpace=wrap;rounded=0;fontSize=12;spacingTop=6;labelBackgroundColor=none;fontColor=#1D3557;" parent="gEmX9rRlGxYNB2lgslIP-47" vertex="1">
          <mxGeometry y="66" width="240" height="20" as="geometry" />
        </mxCell>
        <mxCell id="gEmX9rRlGxYNB2lgslIP-51" value="- phoneNumbers : string [ ]" style="text;html=1;align=left;verticalAlign=middle;whiteSpace=wrap;rounded=0;fontSize=12;spacingTop=6;labelBackgroundColor=none;fontColor=#1D3557;" parent="gEmX9rRlGxYNB2lgslIP-47" vertex="1">
          <mxGeometry y="86" width="240" height="20" as="geometry" />
        </mxCell>
        <mxCell id="gEmX9rRlGxYNB2lgslIP-116" value="- type : Partnership Type" style="text;html=1;align=left;verticalAlign=middle;whiteSpace=wrap;rounded=0;fontSize=12;spacingTop=6;labelBackgroundColor=none;fontColor=#1D3557;" parent="gEmX9rRlGxYNB2lgslIP-47" vertex="1">
          <mxGeometry y="106" width="240" height="20" as="geometry" />
        </mxCell>
        <mxCell id="gEmX9rRlGxYNB2lgslIP-52" value="- performanceRate : float" style="text;html=1;align=left;verticalAlign=middle;whiteSpace=wrap;rounded=0;fontSize=12;spacingTop=6;labelBackgroundColor=none;fontColor=#1D3557;" parent="gEmX9rRlGxYNB2lgslIP-47" vertex="1">
          <mxGeometry y="126" width="240" height="20" as="geometry" />
        </mxCell>
        <mxCell id="gEmX9rRlGxYNB2lgslIP-54" value="- frequency : string" style="text;html=1;align=left;verticalAlign=middle;whiteSpace=wrap;rounded=0;fontSize=12;spacingTop=6;labelBackgroundColor=none;fontColor=#1D3557;" parent="gEmX9rRlGxYNB2lgslIP-47" vertex="1">
          <mxGeometry y="146" width="240" height="20" as="geometry" />
        </mxCell>
        <mxCell id="gEmX9rRlGxYNB2lgslIP-56" value="" style="line;html=1;strokeWidth=1;align=left;verticalAlign=middle;spacingTop=-1;spacingLeft=3;spacingRight=3;rotatable=0;labelPosition=right;points=[];portConstraint=eastwest;labelBackgroundColor=none;fillColor=#A8DADC;strokeColor=#457B9D;fontColor=#1D3557;" parent="gEmX9rRlGxYNB2lgslIP-47" vertex="1">
          <mxGeometry y="166" width="240" height="8" as="geometry" />
        </mxCell>
        <mxCell id="gEmX9rRlGxYNB2lgslIP-125" value="+Partnership(string n, string loc, type, string freq)" style="text;html=1;align=left;verticalAlign=middle;whiteSpace=wrap;rounded=0;fontSize=12;spacingTop=6;labelBackgroundColor=none;fontColor=#1D3557;" parent="gEmX9rRlGxYNB2lgslIP-47" vertex="1">
          <mxGeometry y="174" width="240" height="20" as="geometry" />
        </mxCell>
        <mxCell id="gEmX9rRlGxYNB2lgslIP-126" value="+setFreq(string f) : void" style="text;html=1;align=left;verticalAlign=middle;whiteSpace=wrap;rounded=0;fontSize=12;spacingTop=6;spacingBottom=-9;labelBackgroundColor=none;fontColor=#1D3557;" parent="gEmX9rRlGxYNB2lgslIP-47" vertex="1">
          <mxGeometry y="194" width="240" height="20" as="geometry" />
        </mxCell>
        <mxCell id="gEmX9rRlGxYNB2lgslIP-135" value="+setRate( float r) : void" style="text;html=1;align=left;verticalAlign=middle;whiteSpace=wrap;rounded=0;fontSize=12;spacingTop=6;spacingBottom=-7;labelBackgroundColor=none;fontColor=#1D3557;" parent="gEmX9rRlGxYNB2lgslIP-47" vertex="1">
          <mxGeometry y="214" width="240" height="20" as="geometry" />
        </mxCell>
        <mxCell id="gEmX9rRlGxYNB2lgslIP-127" value="+getType() : Partnership Type" style="text;html=1;align=left;verticalAlign=middle;whiteSpace=wrap;rounded=0;fontSize=12;spacingTop=6;spacingBottom=-4;labelBackgroundColor=none;fontColor=#1D3557;" parent="gEmX9rRlGxYNB2lgslIP-47" vertex="1">
          <mxGeometry y="234" width="240" height="20" as="geometry" />
        </mxCell>
        <mxCell id="gEmX9rRlGxYNB2lgslIP-128" value="+getRate() : float" style="text;html=1;align=left;verticalAlign=middle;whiteSpace=wrap;rounded=0;fontSize=12;spacingTop=6;spacingBottom=-3;labelBackgroundColor=none;fontColor=#1D3557;" parent="gEmX9rRlGxYNB2lgslIP-47" vertex="1">
          <mxGeometry y="254" width="240" height="20" as="geometry" />
        </mxCell>
        <mxCell id="gEmX9rRlGxYNB2lgslIP-129" value="+getAvailabillity() : boolean" style="text;html=1;align=left;verticalAlign=middle;whiteSpace=wrap;rounded=0;fontSize=12;spacingTop=6;spacingBottom=-2;labelBackgroundColor=none;fontColor=#1D3557;" parent="gEmX9rRlGxYNB2lgslIP-47" vertex="1">
          <mxGeometry y="274" width="240" height="20" as="geometry" />
        </mxCell>
        <mxCell id="gEmX9rRlGxYNB2lgslIP-130" value="+getName() : string" style="text;html=1;align=left;verticalAlign=middle;whiteSpace=wrap;rounded=0;fontSize=12;spacingTop=6;labelBackgroundColor=none;fontColor=#1D3557;" parent="gEmX9rRlGxYNB2lgslIP-47" vertex="1">
          <mxGeometry y="294" width="240" height="20" as="geometry" />
        </mxCell>
        <mxCell id="gEmX9rRlGxYNB2lgslIP-131" value="+getFreq() : string" style="text;html=1;align=left;verticalAlign=middle;whiteSpace=wrap;rounded=0;fontSize=12;spacingTop=6;labelBackgroundColor=none;fontColor=#1D3557;" parent="gEmX9rRlGxYNB2lgslIP-47" vertex="1">
          <mxGeometry y="314" width="240" height="20" as="geometry" />
        </mxCell>
        <mxCell id="gEmX9rRlGxYNB2lgslIP-132" value="+getPhone() : List&amp;lt;string&amp;gt;" style="text;html=1;align=left;verticalAlign=middle;whiteSpace=wrap;rounded=0;fontSize=12;spacingTop=6;labelBackgroundColor=none;fontColor=#1D3557;" parent="gEmX9rRlGxYNB2lgslIP-47" vertex="1">
          <mxGeometry y="334" width="240" height="20" as="geometry" />
        </mxCell>
        <mxCell id="gEmX9rRlGxYNB2lgslIP-133" value="+getLocation() : string" style="text;html=1;align=left;verticalAlign=middle;whiteSpace=wrap;rounded=0;fontSize=12;spacingTop=6;labelBackgroundColor=none;fontColor=#1D3557;" parent="gEmX9rRlGxYNB2lgslIP-47" vertex="1">
          <mxGeometry y="354" width="240" height="20" as="geometry" />
        </mxCell>
        <mxCell id="gEmX9rRlGxYNB2lgslIP-57" value="" style="endArrow=block;endSize=16;endFill=0;html=1;rounded=0;entryX=0.5;entryY=1;entryDx=0;entryDy=0;edgeStyle=orthogonalEdgeStyle;labelBackgroundColor=none;strokeColor=#457B9D;fontColor=default;" parent="WIyWlLk6GJQsqaUBKTNV-1" edge="1">
          <mxGeometry width="160" relative="1" as="geometry">
            <mxPoint x="861" y="1627" as="sourcePoint" />
            <mxPoint x="860.73" y="1581" as="targetPoint" />
            <Array as="points">
              <mxPoint x="860.73" y="1617" />
            </Array>
          </mxGeometry>
        </mxCell>
        <mxCell id="gEmX9rRlGxYNB2lgslIP-58" value="" style="endArrow=none;html=1;edgeStyle=orthogonalEdgeStyle;rounded=0;entryX=0.5;entryY=0;entryDx=0;entryDy=0;exitX=0.5;exitY=0;exitDx=0;exitDy=0;labelBackgroundColor=none;strokeColor=#457B9D;fontColor=default;" parent="WIyWlLk6GJQsqaUBKTNV-1" source="gEmX9rRlGxYNB2lgslIP-18" target="gEmX9rRlGxYNB2lgslIP-10" edge="1">
          <mxGeometry relative="1" as="geometry">
            <mxPoint x="751" y="1487" as="sourcePoint" />
            <mxPoint x="1047" y="1486" as="targetPoint" />
            <Array as="points">
              <mxPoint x="746" y="1627" />
              <mxPoint x="1046" y="1627" />
            </Array>
          </mxGeometry>
        </mxCell>
        <mxCell id="gEmX9rRlGxYNB2lgslIP-62" value="manages" style="text;html=1;align=center;verticalAlign=bottom;whiteSpace=wrap;rounded=0;rotation=0;labelBackgroundColor=none;fontColor=#1D3557;" parent="WIyWlLk6GJQsqaUBKTNV-1" vertex="1">
          <mxGeometry x="684" y="1332" width="40" height="10" as="geometry" />
        </mxCell>
        <mxCell id="E7Js1CmvD6nsmvyOke-_-53" style="edgeStyle=orthogonalEdgeStyle;rounded=0;orthogonalLoop=1;jettySize=auto;html=1;exitX=0.75;exitY=0;exitDx=0;exitDy=0;entryX=0.5;entryY=1;entryDx=0;entryDy=0;" parent="WIyWlLk6GJQsqaUBKTNV-1" source="gEmX9rRlGxYNB2lgslIP-68" target="btWsvQY2q8_8Hk2CBS7h-29" edge="1">
          <mxGeometry relative="1" as="geometry">
            <Array as="points">
              <mxPoint x="1071" y="886" />
              <mxPoint x="1744" y="886" />
            </Array>
          </mxGeometry>
        </mxCell>
        <mxCell id="gEmX9rRlGxYNB2lgslIP-68" value="ProgramCoordinator" style="swimlane;fontStyle=1;align=center;verticalAlign=top;childLayout=stackLayout;horizontal=1;startSize=26;horizontalStack=0;resizeParent=1;resizeLast=0;collapsible=1;marginBottom=0;rounded=0;shadow=0;strokeWidth=1;fontSize=15;labelBackgroundColor=none;fillColor=#A8DADC;strokeColor=#457B9D;fontColor=#1D3557;" parent="WIyWlLk6GJQsqaUBKTNV-1" vertex="1">
          <mxGeometry x="889" y="947" width="242" height="180" as="geometry">
            <mxRectangle x="550" y="140" width="160" height="26" as="alternateBounds" />
          </mxGeometry>
        </mxCell>
        <mxCell id="gEmX9rRlGxYNB2lgslIP-69" value="" style="line;html=1;strokeWidth=1;align=left;verticalAlign=middle;spacingTop=-1;spacingLeft=3;spacingRight=3;rotatable=0;labelPosition=right;points=[];portConstraint=eastwest;labelBackgroundColor=none;fillColor=#A8DADC;strokeColor=#457B9D;fontColor=#1D3557;" parent="gEmX9rRlGxYNB2lgslIP-68" vertex="1">
          <mxGeometry y="26" width="242" height="20" as="geometry" />
        </mxCell>
        <mxCell id="btWsvQY2q8_8Hk2CBS7h-7" value="+updateRequestStatus(Donor d, RequestStatus newstatus) : boolean" style="text;html=1;align=left;verticalAlign=middle;whiteSpace=wrap;rounded=0;fontSize=12;spacingTop=6;spacingBottom=-16;labelBackgroundColor=none;fontColor=#1D3557;" parent="gEmX9rRlGxYNB2lgslIP-68" vertex="1">
          <mxGeometry y="46" width="242" height="35" as="geometry" />
        </mxCell>
        <mxCell id="06Cd4AgThaGGWCjbHUdQ-18" value="+addProgram(program : Program) : void" style="text;html=1;align=left;verticalAlign=middle;whiteSpace=wrap;rounded=0;fontSize=12;spacingTop=6;labelBackgroundColor=none;fontColor=#1D3557;" parent="gEmX9rRlGxYNB2lgslIP-68" vertex="1">
          <mxGeometry y="81" width="242" height="37" as="geometry" />
        </mxCell>
        <mxCell id="06Cd4AgThaGGWCjbHUdQ-19" value="+removeProgram(programID) : void" style="text;html=1;align=left;verticalAlign=middle;whiteSpace=wrap;rounded=0;fontSize=12;spacingTop=6;labelBackgroundColor=none;fontColor=#1D3557;" parent="gEmX9rRlGxYNB2lgslIP-68" vertex="1">
          <mxGeometry y="118" width="242" height="14" as="geometry" />
        </mxCell>
        <mxCell id="06Cd4AgThaGGWCjbHUdQ-20" value="+editProgram() : void" style="text;html=1;align=left;verticalAlign=middle;whiteSpace=wrap;rounded=0;fontSize=12;spacingTop=6;labelBackgroundColor=none;fontColor=#1D3557;" parent="gEmX9rRlGxYNB2lgslIP-68" vertex="1">
          <mxGeometry y="132" width="242" height="21" as="geometry" />
        </mxCell>
        <mxCell id="E7Js1CmvD6nsmvyOke-_-47" style="edgeStyle=orthogonalEdgeStyle;rounded=0;orthogonalLoop=1;jettySize=auto;html=1;exitX=0.5;exitY=1;exitDx=0;exitDy=0;" parent="WIyWlLk6GJQsqaUBKTNV-1" source="gEmX9rRlGxYNB2lgslIP-87" target="t_3KVrFBqGaoaHZ3aIhR-126" edge="1">
          <mxGeometry relative="1" as="geometry" />
        </mxCell>
        <mxCell id="gEmX9rRlGxYNB2lgslIP-87" value="ExecutiveDirector" style="swimlane;fontStyle=1;align=center;verticalAlign=top;childLayout=stackLayout;horizontal=1;startSize=26;horizontalStack=0;resizeParent=1;resizeLast=0;collapsible=1;marginBottom=0;rounded=0;shadow=0;strokeWidth=1;fontSize=15;labelBackgroundColor=none;fillColor=#A8DADC;strokeColor=#457B9D;fontColor=#1D3557;spacingTop=-2;spacingBottom=-1;" parent="WIyWlLk6GJQsqaUBKTNV-1" vertex="1">
          <mxGeometry x="1572" y="923" width="250" height="180" as="geometry">
            <mxRectangle x="550" y="140" width="160" height="26" as="alternateBounds" />
          </mxGeometry>
        </mxCell>
        <mxCell id="gEmX9rRlGxYNB2lgslIP-88" value="" style="line;html=1;strokeWidth=1;align=left;verticalAlign=middle;spacingTop=-1;spacingLeft=3;spacingRight=3;rotatable=0;labelPosition=right;points=[];portConstraint=eastwest;labelBackgroundColor=none;fillColor=#A8DADC;strokeColor=#457B9D;fontColor=#1D3557;" parent="gEmX9rRlGxYNB2lgslIP-87" vertex="1">
          <mxGeometry y="26" width="250" height="20" as="geometry" />
        </mxCell>
        <mxCell id="gEmX9rRlGxYNB2lgslIP-89" value="+ViewMonthlyDonations(int: Year) : double" style="text;whiteSpace=wrap;html=1;fontSize=12;spacingTop=-7;verticalAlign=top;labelBackgroundColor=none;fontColor=#1D3557;" parent="gEmX9rRlGxYNB2lgslIP-87" vertex="1">
          <mxGeometry y="46" width="250" height="23" as="geometry" />
        </mxCell>
        <mxCell id="E7Js1CmvD6nsmvyOke-_-51" value="+contactReciepient( reciepient :Reciepient): void" style="text;whiteSpace=wrap;html=1;fontSize=12;spacingTop=-7;verticalAlign=top;labelBackgroundColor=none;fontColor=#1D3557;" parent="gEmX9rRlGxYNB2lgslIP-87" vertex="1">
          <mxGeometry y="69" width="250" height="18" as="geometry" />
        </mxCell>
        <mxCell id="gEmX9rRlGxYNB2lgslIP-98" value="" style="endArrow=none;html=1;edgeStyle=orthogonalEdgeStyle;rounded=0;entryX=0.5;entryY=0;entryDx=0;entryDy=0;labelBackgroundColor=none;strokeColor=#457B9D;fontColor=default;" parent="WIyWlLk6GJQsqaUBKTNV-1" target="gEmX9rRlGxYNB2lgslIP-68" edge="1">
          <mxGeometry relative="1" as="geometry">
            <mxPoint x="891" y="897" as="sourcePoint" />
            <mxPoint x="1092" y="917" as="targetPoint" />
          </mxGeometry>
        </mxCell>
        <mxCell id="gEmX9rRlGxYNB2lgslIP-101" value="" style="endArrow=none;html=1;edgeStyle=orthogonalEdgeStyle;rounded=0;labelBackgroundColor=none;strokeColor=#457B9D;fontColor=default;" parent="WIyWlLk6GJQsqaUBKTNV-1" target="gEmX9rRlGxYNB2lgslIP-87" edge="1">
          <mxGeometry relative="1" as="geometry">
            <mxPoint x="891" y="897" as="sourcePoint" />
            <mxPoint x="1271" y="937" as="targetPoint" />
          </mxGeometry>
        </mxCell>
        <mxCell id="gEmX9rRlGxYNB2lgslIP-178" value="manages" style="text;html=1;align=center;verticalAlign=bottom;whiteSpace=wrap;rounded=0;rotation=0;labelBackgroundColor=none;fontColor=#1D3557;" parent="WIyWlLk6GJQsqaUBKTNV-1" vertex="1">
          <mxGeometry x="1048" y="1160" width="40" height="10" as="geometry" />
        </mxCell>
        <mxCell id="gEmX9rRlGxYNB2lgslIP-179" value="manages" style="text;html=1;align=center;verticalAlign=bottom;whiteSpace=wrap;rounded=0;rotation=0;labelBackgroundColor=none;fontColor=#1D3557;" parent="WIyWlLk6GJQsqaUBKTNV-1" vertex="1">
          <mxGeometry x="1360" y="1174" width="40" height="10" as="geometry" />
        </mxCell>
        <mxCell id="gEmX9rRlGxYNB2lgslIP-189" value="1" style="text;html=1;align=center;verticalAlign=middle;whiteSpace=wrap;rounded=0;fontSize=12;spacingLeft=-9;fontStyle=1;labelBackgroundColor=none;fontColor=#1D3557;" parent="WIyWlLk6GJQsqaUBKTNV-1" vertex="1">
          <mxGeometry x="1489" y="675" width="50" height="20" as="geometry" />
        </mxCell>
        <mxCell id="gEmX9rRlGxYNB2lgslIP-190" value="*" style="text;html=1;align=center;verticalAlign=middle;whiteSpace=wrap;rounded=0;fontSize=15;spacingLeft=8;fontStyle=1;labelBackgroundColor=none;fontColor=#1D3557;" parent="WIyWlLk6GJQsqaUBKTNV-1" vertex="1">
          <mxGeometry x="1824" y="1154" width="30" height="10" as="geometry" />
        </mxCell>
        <mxCell id="gEmX9rRlGxYNB2lgslIP-197" value="Package Coordinator" style="text;html=1;align=left;verticalAlign=middle;whiteSpace=wrap;rounded=0;fontSize=10;labelBackgroundColor=none;fontColor=#1D3557;" parent="WIyWlLk6GJQsqaUBKTNV-1" vertex="1">
          <mxGeometry x="2185" y="1790" width="220" height="20" as="geometry" />
        </mxCell>
        <mxCell id="gEmX9rRlGxYNB2lgslIP-198" value="" style="swimlane;fontStyle=1;align=center;verticalAlign=top;childLayout=stackLayout;horizontal=1;startSize=26;horizontalStack=0;resizeParent=1;resizeLast=0;collapsible=1;marginBottom=0;rounded=0;shadow=0;strokeWidth=1;fontSize=13;labelBackgroundColor=none;fillColor=#A8DADC;strokeColor=#457B9D;fontColor=#1D3557;" parent="WIyWlLk6GJQsqaUBKTNV-1" vertex="1">
          <mxGeometry x="2185" y="1800" width="220" height="74" as="geometry">
            <mxRectangle x="340" y="380" width="170" height="26" as="alternateBounds" />
          </mxGeometry>
        </mxCell>
        <mxCell id="gEmX9rRlGxYNB2lgslIP-199" value="Supplier" style="text;html=1;align=left;verticalAlign=middle;whiteSpace=wrap;rounded=0;fontSize=12;labelBackgroundColor=none;fontColor=#1D3557;" parent="gEmX9rRlGxYNB2lgslIP-198" vertex="1">
          <mxGeometry y="26" width="220" height="20" as="geometry" />
        </mxCell>
        <mxCell id="gEmX9rRlGxYNB2lgslIP-200" value="Distributor" style="text;html=1;align=left;verticalAlign=middle;whiteSpace=wrap;rounded=0;fontSize=12;labelBackgroundColor=none;fontColor=#1D3557;" parent="gEmX9rRlGxYNB2lgslIP-198" vertex="1">
          <mxGeometry y="46" width="220" height="20" as="geometry" />
        </mxCell>
        <mxCell id="gEmX9rRlGxYNB2lgslIP-202" value="&amp;lt;&amp;lt;Enumeration&amp;gt;&amp;gt;&lt;div&gt;&lt;b&gt;PartnershipType&lt;/b&gt;&lt;/div&gt;" style="html=1;whiteSpace=wrap;fontSize=15;labelBackgroundColor=none;fillColor=#A8DADC;strokeColor=#457B9D;fontColor=#1D3557;" parent="WIyWlLk6GJQsqaUBKTNV-1" vertex="1">
          <mxGeometry x="2185" y="1776" width="220" height="50" as="geometry" />
        </mxCell>
        <mxCell id="gEmX9rRlGxYNB2lgslIP-210" value="*" style="text;html=1;align=center;verticalAlign=middle;whiteSpace=wrap;rounded=0;fontSize=15;spacingLeft=-9;fontStyle=1;labelBackgroundColor=none;fontColor=#1D3557;" parent="WIyWlLk6GJQsqaUBKTNV-1" vertex="1">
          <mxGeometry x="1407" y="1465" width="50" height="20" as="geometry" />
        </mxCell>
        <mxCell id="gEmX9rRlGxYNB2lgslIP-212" value="*" style="text;html=1;align=center;verticalAlign=middle;whiteSpace=wrap;rounded=0;fontSize=15;spacingLeft=-9;fontStyle=1;labelBackgroundColor=none;fontColor=#1D3557;" parent="WIyWlLk6GJQsqaUBKTNV-1" vertex="1">
          <mxGeometry x="718" y="1861" width="50" height="20" as="geometry" />
        </mxCell>
        <mxCell id="btWsvQY2q8_8Hk2CBS7h-18" value="Package Coordinator" style="text;html=1;align=left;verticalAlign=middle;whiteSpace=wrap;rounded=0;fontSize=10;labelBackgroundColor=none;fontColor=#1D3557;" parent="WIyWlLk6GJQsqaUBKTNV-1" vertex="1">
          <mxGeometry x="2316" y="1575" width="220" height="20" as="geometry" />
        </mxCell>
        <mxCell id="btWsvQY2q8_8Hk2CBS7h-19" value="" style="swimlane;fontStyle=1;align=center;verticalAlign=top;childLayout=stackLayout;horizontal=1;startSize=26;horizontalStack=0;resizeParent=1;resizeLast=0;collapsible=1;marginBottom=0;rounded=0;shadow=0;strokeWidth=1;fontSize=13;labelBackgroundColor=none;fillColor=#A8DADC;strokeColor=#457B9D;fontColor=#1D3557;" parent="WIyWlLk6GJQsqaUBKTNV-1" vertex="1">
          <mxGeometry x="2247" y="1577" width="218" height="154" as="geometry">
            <mxRectangle x="340" y="380" width="170" height="26" as="alternateBounds" />
          </mxGeometry>
        </mxCell>
        <mxCell id="btWsvQY2q8_8Hk2CBS7h-21" value="Waiting" style="text;html=1;align=left;verticalAlign=middle;whiteSpace=wrap;rounded=0;fontSize=12;labelBackgroundColor=none;fontColor=#1D3557;" parent="btWsvQY2q8_8Hk2CBS7h-19" vertex="1">
          <mxGeometry y="26" width="218" height="20" as="geometry" />
        </mxCell>
        <mxCell id="btWsvQY2q8_8Hk2CBS7h-22" value="Processing" style="text;html=1;align=left;verticalAlign=middle;whiteSpace=wrap;rounded=0;fontSize=12;labelBackgroundColor=none;fontColor=#1D3557;" parent="btWsvQY2q8_8Hk2CBS7h-19" vertex="1">
          <mxGeometry y="46" width="218" height="20" as="geometry" />
        </mxCell>
        <mxCell id="btWsvQY2q8_8Hk2CBS7h-24" value="Accepted" style="text;html=1;align=left;verticalAlign=middle;whiteSpace=wrap;rounded=0;fontSize=12;labelBackgroundColor=none;fontColor=#1D3557;" parent="btWsvQY2q8_8Hk2CBS7h-19" vertex="1">
          <mxGeometry y="66" width="218" height="20" as="geometry" />
        </mxCell>
        <mxCell id="btWsvQY2q8_8Hk2CBS7h-26" value="Refused" style="text;html=1;align=left;verticalAlign=middle;whiteSpace=wrap;rounded=0;fontSize=12;labelBackgroundColor=none;fontColor=#1D3557;" parent="btWsvQY2q8_8Hk2CBS7h-19" vertex="1">
          <mxGeometry y="86" width="218" height="20" as="geometry" />
        </mxCell>
        <mxCell id="btWsvQY2q8_8Hk2CBS7h-25" value="&lt;font style=&quot;font-size: 15px;&quot;&gt;&amp;lt;&amp;lt;Enumeration&amp;gt;&amp;gt;&lt;/font&gt;&lt;div style=&quot;font-size: 15px;&quot;&gt;&lt;b style=&quot;font-size: 15px;&quot;&gt;RequestStatus&lt;/b&gt;&lt;/div&gt;" style="html=1;whiteSpace=wrap;fontSize=15;labelBackgroundColor=none;fillColor=#A8DADC;strokeColor=#457B9D;fontColor=#1D3557;" parent="WIyWlLk6GJQsqaUBKTNV-1" vertex="1">
          <mxGeometry x="2247" y="1575" width="218" height="50" as="geometry" />
        </mxCell>
        <mxCell id="btWsvQY2q8_8Hk2CBS7h-29" value="Volunteer Request" style="swimlane;fontStyle=1;align=center;verticalAlign=top;childLayout=stackLayout;horizontal=1;startSize=26;horizontalStack=0;resizeParent=1;resizeLast=0;collapsible=1;marginBottom=0;rounded=0;shadow=0;strokeWidth=1;fontSize=13;labelBackgroundColor=none;fillColor=#A8DADC;strokeColor=#457B9D;fontColor=#1D3557;" parent="WIyWlLk6GJQsqaUBKTNV-1" vertex="1">
          <mxGeometry x="1634" y="595" width="220" height="150" as="geometry">
            <mxRectangle x="340" y="380" width="170" height="26" as="alternateBounds" />
          </mxGeometry>
        </mxCell>
        <mxCell id="btWsvQY2q8_8Hk2CBS7h-33" value="- requestID : int" style="text;html=1;align=left;verticalAlign=middle;whiteSpace=wrap;rounded=0;fontSize=12;spacingTop=6;labelBackgroundColor=none;fontColor=#1D3557;" parent="btWsvQY2q8_8Hk2CBS7h-29" vertex="1">
          <mxGeometry y="26" width="220" height="20" as="geometry" />
        </mxCell>
        <mxCell id="btWsvQY2q8_8Hk2CBS7h-31" value="-status: RequestStatus" style="text;html=1;align=left;verticalAlign=middle;whiteSpace=wrap;rounded=0;fontSize=12;spacingTop=6;labelBackgroundColor=none;fontColor=#1D3557;" parent="btWsvQY2q8_8Hk2CBS7h-29" vertex="1">
          <mxGeometry y="46" width="220" height="20" as="geometry" />
        </mxCell>
        <mxCell id="btWsvQY2q8_8Hk2CBS7h-30" value="" style="line;html=1;strokeWidth=1;align=left;verticalAlign=middle;spacingTop=-1;spacingLeft=3;spacingRight=3;rotatable=0;labelPosition=right;points=[];portConstraint=eastwest;labelBackgroundColor=none;fillColor=#A8DADC;strokeColor=#457B9D;fontColor=#1D3557;" parent="btWsvQY2q8_8Hk2CBS7h-29" vertex="1">
          <mxGeometry y="66" width="220" height="8" as="geometry" />
        </mxCell>
        <mxCell id="btWsvQY2q8_8Hk2CBS7h-34" value="+VolunteerRequest(RequestStatus reqst)" style="text;html=1;align=left;verticalAlign=bottom;whiteSpace=wrap;rounded=0;fontSize=12;spacingTop=7;spacingBottom=-7;labelBackgroundColor=none;fontColor=#1D3557;" parent="btWsvQY2q8_8Hk2CBS7h-29" vertex="1">
          <mxGeometry y="74" width="220" height="25" as="geometry" />
        </mxCell>
        <mxCell id="E7Js1CmvD6nsmvyOke-_-52" value="+sendVolunteerEmail() : boolean" style="text;html=1;align=left;verticalAlign=bottom;whiteSpace=wrap;rounded=0;fontSize=12;spacingTop=7;spacingBottom=-7;labelBackgroundColor=none;fontColor=#1D3557;" parent="btWsvQY2q8_8Hk2CBS7h-29" vertex="1">
          <mxGeometry y="99" width="220" height="20" as="geometry" />
        </mxCell>
        <mxCell id="btWsvQY2q8_8Hk2CBS7h-36" value="1" style="text;html=1;align=center;verticalAlign=middle;whiteSpace=wrap;rounded=0;fontSize=12;spacingLeft=-9;fontStyle=1;labelBackgroundColor=none;fontColor=#1D3557;" parent="WIyWlLk6GJQsqaUBKTNV-1" vertex="1">
          <mxGeometry x="1461" y="636" width="50" height="20" as="geometry" />
        </mxCell>
        <mxCell id="btWsvQY2q8_8Hk2CBS7h-37" value="1" style="text;html=1;align=center;verticalAlign=middle;whiteSpace=wrap;rounded=0;fontSize=12;spacingLeft=-9;fontStyle=1;labelBackgroundColor=none;fontColor=#1D3557;" parent="WIyWlLk6GJQsqaUBKTNV-1" vertex="1">
          <mxGeometry x="1612" y="644" width="16" height="20" as="geometry" />
        </mxCell>
        <mxCell id="K1Qb6Dx1jlNtI37zLWzs-39" value="&lt;&lt;Interface&gt;&gt;&#xa;IVerifiable" style="swimlane;fontStyle=1;align=center;verticalAlign=middle;childLayout=stackLayout;horizontal=1;startSize=45;horizontalStack=0;resizeParent=1;resizeLast=0;collapsible=1;marginBottom=0;rounded=0;shadow=0;strokeWidth=1;fontSize=15;labelBackgroundColor=none;fillColor=#A8DADC;strokeColor=#457B9D;fontColor=#1D3557;" parent="WIyWlLk6GJQsqaUBKTNV-1" vertex="1">
          <mxGeometry x="781" y="80" width="270" height="231" as="geometry">
            <mxRectangle x="230" y="140" width="160" height="26" as="alternateBounds" />
          </mxGeometry>
        </mxCell>
        <mxCell id="t_3KVrFBqGaoaHZ3aIhR-63" value="+login(String: Username, String: Password) : boolean" style="text;align=left;verticalAlign=top;spacingLeft=0;spacingRight=4;overflow=hidden;rotatable=0;points=[[0,0.5],[1,0.5]];portConstraint=eastwest;rounded=0;shadow=0;html=0;fontSize=12;spacingTop=-5;spacingBottom=-9;labelBackgroundColor=none;fontColor=#1D3557;" parent="K1Qb6Dx1jlNtI37zLWzs-39" vertex="1">
          <mxGeometry y="45" width="270" as="geometry" />
        </mxCell>
        <mxCell id="K1Qb6Dx1jlNtI37zLWzs-57" value="+logout () : void" style="text;html=1;align=left;verticalAlign=middle;whiteSpace=wrap;rounded=0;fontSize=12;spacingTop=0;spacingBottom=-26;spacingLeft=-1;labelBackgroundColor=none;fontColor=#1D3557;" parent="K1Qb6Dx1jlNtI37zLWzs-39" vertex="1">
          <mxGeometry y="45" width="270" height="20" as="geometry" />
        </mxCell>
        <mxCell id="K1Qb6Dx1jlNtI37zLWzs-60" value="&amp;nbsp; &amp;nbsp;" style="text;html=1;align=left;verticalAlign=middle;whiteSpace=wrap;rounded=0;fontSize=12;spacingTop=0;spacingBottom=-26;spacingLeft=-1;labelBackgroundColor=none;fontColor=#1D3557;" parent="K1Qb6Dx1jlNtI37zLWzs-39" vertex="1">
          <mxGeometry y="65" width="270" height="20" as="geometry" />
        </mxCell>
        <mxCell id="K1Qb6Dx1jlNtI37zLWzs-59" value="+signUp(String username, String password, date birthdate, string email, string phonenumber, string gender): bool" style="text;html=1;align=left;verticalAlign=middle;whiteSpace=wrap;rounded=0;fontSize=12;spacingTop=0;spacingBottom=-26;spacingLeft=-1;labelBackgroundColor=none;fontColor=#1D3557;" parent="K1Qb6Dx1jlNtI37zLWzs-39" vertex="1">
          <mxGeometry y="85" width="270" height="20" as="geometry" />
        </mxCell>
        <mxCell id="K1Qb6Dx1jlNtI37zLWzs-62" value="&amp;nbsp; &amp;nbsp;" style="text;html=1;align=left;verticalAlign=middle;whiteSpace=wrap;rounded=0;fontSize=12;spacingTop=0;spacingBottom=-26;spacingLeft=-1;labelBackgroundColor=none;fontColor=#1D3557;" parent="K1Qb6Dx1jlNtI37zLWzs-39" vertex="1">
          <mxGeometry y="105" width="270" height="20" as="geometry" />
        </mxCell>
        <mxCell id="K1Qb6Dx1jlNtI37zLWzs-61" value="+setUsername(string username) : void" style="text;html=1;align=left;verticalAlign=middle;whiteSpace=wrap;rounded=0;fontSize=12;spacingTop=0;spacingBottom=-26;spacingLeft=-1;labelBackgroundColor=none;fontColor=#1D3557;" parent="K1Qb6Dx1jlNtI37zLWzs-39" vertex="1">
          <mxGeometry y="125" width="270" height="20" as="geometry" />
        </mxCell>
        <mxCell id="K1Qb6Dx1jlNtI37zLWzs-63" value="+getUsername() : string&lt;span style=&quot;color: rgba(0, 0, 0, 0); font-family: monospace; font-size: 0px; text-wrap: nowrap;&quot;&gt;%3CmxGraphModel%3E%3Croot%3E%3CmxCell%20id%3D%220%22%2F%3E%3CmxCell%20id%3D%221%22%20parent%3D%220%22%2F%3E%3CmxCell%20id%3D%222%22%20value%3D%22%2BsetUsername(string%20username)%20%3A%20void%22%20style%3D%22text%3Bhtml%3D1%3Balign%3Dleft%3BverticalAlign%3Dmiddle%3BwhiteSpace%3Dwrap%3Brounded%3D0%3BfontSize%3D12%3BspacingTop%3D0%3BspacingBottom%3D-26%3BspacingLeft%3D-1%3BlabelBackgroundColor%3Dnone%3BfontColor%3D%231D3557%3B%22%20vertex%3D%221%22%20parent%3D%221%22%3E%3CmxGeometry%20x%3D%221041%22%20y%3D%22-64%22%20width%3D%22270%22%20height%3D%2220%22%20as%3D%22geometry%22%2F%3E%3C%2FmxCell%3E%3C%2Froot%3E%3C%2FmxGraphModel%3E&lt;/span&gt;" style="text;html=1;align=left;verticalAlign=middle;whiteSpace=wrap;rounded=0;fontSize=12;spacingTop=0;spacingBottom=-26;spacingLeft=-1;labelBackgroundColor=none;fontColor=#1D3557;" parent="K1Qb6Dx1jlNtI37zLWzs-39" vertex="1">
          <mxGeometry y="145" width="270" height="20" as="geometry" />
        </mxCell>
        <mxCell id="K1Qb6Dx1jlNtI37zLWzs-65" value="+changePassword(string newpassword):bool" style="text;html=1;align=left;verticalAlign=middle;whiteSpace=wrap;rounded=0;fontSize=12;spacingTop=0;spacingBottom=-26;spacingLeft=-1;labelBackgroundColor=none;fontColor=#1D3557;" parent="K1Qb6Dx1jlNtI37zLWzs-39" vertex="1">
          <mxGeometry y="165" width="270" height="20" as="geometry" />
        </mxCell>
        <mxCell id="K1Qb6Dx1jlNtI37zLWzs-82" value="" style="endArrow=none;dashed=1;html=1;rounded=0;" parent="WIyWlLk6GJQsqaUBKTNV-1" edge="1">
          <mxGeometry width="50" height="50" relative="1" as="geometry">
            <mxPoint x="854" y="910" as="sourcePoint" />
            <mxPoint x="1881" y="908" as="targetPoint" />
          </mxGeometry>
        </mxCell>
        <mxCell id="K1Qb6Dx1jlNtI37zLWzs-86" value="" style="endArrow=none;dashed=1;html=1;rounded=0;exitX=0.599;exitY=0.002;exitDx=0;exitDy=0;exitPerimeter=0;" parent="WIyWlLk6GJQsqaUBKTNV-1" source="t_3KVrFBqGaoaHZ3aIhR-150" edge="1">
          <mxGeometry width="50" height="50" relative="1" as="geometry">
            <mxPoint x="1141" y="947" as="sourcePoint" />
            <mxPoint x="1141" y="908" as="targetPoint" />
          </mxGeometry>
        </mxCell>
        <mxCell id="K1Qb6Dx1jlNtI37zLWzs-87" value="Reciepient" style="swimlane;fontStyle=1;align=center;verticalAlign=top;childLayout=stackLayout;horizontal=1;startSize=26;horizontalStack=0;resizeParent=1;resizeLast=0;collapsible=1;marginBottom=0;rounded=0;shadow=0;strokeWidth=1;fontSize=13;labelBackgroundColor=none;fillColor=#A8DADC;strokeColor=#457B9D;fontColor=#1D3557;" parent="WIyWlLk6GJQsqaUBKTNV-1" vertex="1">
          <mxGeometry x="1965" y="923" width="220" height="174" as="geometry">
            <mxRectangle x="340" y="380" width="170" height="26" as="alternateBounds" />
          </mxGeometry>
        </mxCell>
        <mxCell id="K1Qb6Dx1jlNtI37zLWzs-88" value="- name : string" style="text;html=1;align=left;verticalAlign=middle;whiteSpace=wrap;rounded=0;fontSize=12;spacingTop=6;labelBackgroundColor=none;fontColor=#1D3557;" parent="K1Qb6Dx1jlNtI37zLWzs-87" vertex="1">
          <mxGeometry y="26" width="220" height="20" as="geometry" />
        </mxCell>
        <mxCell id="K1Qb6Dx1jlNtI37zLWzs-89" value="-location : string" style="text;html=1;align=left;verticalAlign=middle;whiteSpace=wrap;rounded=0;fontSize=12;spacingTop=6;labelBackgroundColor=none;fontColor=#1D3557;" parent="K1Qb6Dx1jlNtI37zLWzs-87" vertex="1">
          <mxGeometry y="46" width="220" height="20" as="geometry" />
        </mxCell>
        <mxCell id="K1Qb6Dx1jlNtI37zLWzs-94" value="-contactinfo : string" style="text;html=1;align=left;verticalAlign=middle;whiteSpace=wrap;rounded=0;fontSize=12;spacingTop=6;labelBackgroundColor=none;fontColor=#1D3557;" parent="K1Qb6Dx1jlNtI37zLWzs-87" vertex="1">
          <mxGeometry y="66" width="220" height="20" as="geometry" />
        </mxCell>
        <mxCell id="K1Qb6Dx1jlNtI37zLWzs-95" value="-orderRequested : string" style="text;html=1;align=left;verticalAlign=middle;whiteSpace=wrap;rounded=0;fontSize=12;spacingTop=6;labelBackgroundColor=none;fontColor=#1D3557;" parent="K1Qb6Dx1jlNtI37zLWzs-87" vertex="1">
          <mxGeometry y="86" width="220" height="20" as="geometry" />
        </mxCell>
        <mxCell id="K1Qb6Dx1jlNtI37zLWzs-92" value="" style="line;html=1;strokeWidth=1;align=left;verticalAlign=middle;spacingTop=-1;spacingLeft=3;spacingRight=3;rotatable=0;labelPosition=right;points=[];portConstraint=eastwest;labelBackgroundColor=none;fillColor=#A8DADC;strokeColor=#457B9D;fontColor=#1D3557;" parent="K1Qb6Dx1jlNtI37zLWzs-87" vertex="1">
          <mxGeometry y="106" width="220" height="8" as="geometry" />
        </mxCell>
        <mxCell id="K1Qb6Dx1jlNtI37zLWzs-93" value="+requestfood() : boolean" style="text;html=1;align=left;verticalAlign=bottom;whiteSpace=wrap;rounded=0;fontSize=12;spacingTop=7;spacingBottom=-7;labelBackgroundColor=none;fontColor=#1D3557;" parent="K1Qb6Dx1jlNtI37zLWzs-87" vertex="1">
          <mxGeometry y="114" width="220" height="20" as="geometry" />
        </mxCell>
        <mxCell id="K1Qb6Dx1jlNtI37zLWzs-97" value="Contacts" style="text;html=1;align=center;verticalAlign=middle;whiteSpace=wrap;rounded=0;" parent="WIyWlLk6GJQsqaUBKTNV-1" vertex="1">
          <mxGeometry x="1882" y="988" width="60" height="30" as="geometry" />
        </mxCell>
        <mxCell id="lvKvh5-uWPCNPsoE2FLj-9" value="DonationDetail" style="swimlane;fontStyle=1;align=center;verticalAlign=top;childLayout=stackLayout;horizontal=1;startSize=26;horizontalStack=0;resizeParent=1;resizeLast=0;collapsible=1;marginBottom=0;rounded=0;shadow=0;strokeWidth=1;fontSize=15;labelBackgroundColor=none;fillColor=#A8DADC;strokeColor=#457B9D;fontColor=#1D3557;" parent="WIyWlLk6GJQsqaUBKTNV-1" vertex="1">
          <mxGeometry x="2127" y="1170" width="210" height="342" as="geometry">
            <mxRectangle x="130" y="380" width="160" height="26" as="alternateBounds" />
          </mxGeometry>
        </mxCell>
        <mxCell id="lvKvh5-uWPCNPsoE2FLj-11" value="- dDetail_ID : int" style="text;html=1;align=left;verticalAlign=middle;whiteSpace=wrap;rounded=0;fontSize=12;spacingTop=6;labelBackgroundColor=none;fontColor=#1D3557;" parent="lvKvh5-uWPCNPsoE2FLj-9" vertex="1">
          <mxGeometry y="26" width="210" height="20" as="geometry" />
        </mxCell>
        <mxCell id="lvKvh5-uWPCNPsoE2FLj-14" value="- donatedItems[ ] : string" style="text;html=1;align=left;verticalAlign=middle;whiteSpace=wrap;rounded=0;fontSize=12;spacingTop=6;labelBackgroundColor=none;fontColor=#1D3557;" parent="lvKvh5-uWPCNPsoE2FLj-9" vertex="1">
          <mxGeometry y="46" width="210" height="20" as="geometry" />
        </mxCell>
        <mxCell id="l-ATcEgu00QKDk7hao4Y-15" value="- donatedQuantity[ ] : int" style="text;html=1;align=left;verticalAlign=middle;whiteSpace=wrap;rounded=0;fontSize=12;spacingTop=6;labelBackgroundColor=none;fontColor=#1D3557;" parent="lvKvh5-uWPCNPsoE2FLj-9" vertex="1">
          <mxGeometry y="66" width="210" height="20" as="geometry" />
        </mxCell>
        <mxCell id="lvKvh5-uWPCNPsoE2FLj-15" value="- donatedAmount[ ] : float" style="text;html=1;align=left;verticalAlign=middle;whiteSpace=wrap;rounded=0;fontSize=12;spacingTop=6;labelBackgroundColor=none;fontColor=#1D3557;" parent="lvKvh5-uWPCNPsoE2FLj-9" vertex="1">
          <mxGeometry y="86" width="210" height="20" as="geometry" />
        </mxCell>
        <mxCell id="EEnSZuUMuqlkZW2_UFZi-43" value="- totalPrice : float" style="text;html=1;align=left;verticalAlign=middle;whiteSpace=wrap;rounded=0;fontSize=12;spacingTop=6;labelBackgroundColor=none;fontColor=#1D3557;" parent="lvKvh5-uWPCNPsoE2FLj-9" vertex="1">
          <mxGeometry y="106" width="210" height="20" as="geometry" />
        </mxCell>
        <mxCell id="lvKvh5-uWPCNPsoE2FLj-17" value="" style="line;html=1;strokeWidth=1;align=left;verticalAlign=middle;spacingTop=-1;spacingLeft=3;spacingRight=3;rotatable=0;labelPosition=right;points=[];portConstraint=eastwest;labelBackgroundColor=none;fillColor=#A8DADC;strokeColor=#457B9D;fontColor=#1D3557;" parent="lvKvh5-uWPCNPsoE2FLj-9" vertex="1">
          <mxGeometry y="126" width="210" height="8" as="geometry" />
        </mxCell>
        <mxCell id="lvKvh5-uWPCNPsoE2FLj-18" value="+Donation_Detail(donatedItem, donatedAmount) : void" style="text;html=1;align=left;verticalAlign=middle;whiteSpace=wrap;rounded=0;fontSize=12;spacingTop=6;labelBackgroundColor=none;fontColor=#1D3557;" parent="lvKvh5-uWPCNPsoE2FLj-9" vertex="1">
          <mxGeometry y="134" width="210" height="20" as="geometry" />
        </mxCell>
        <mxCell id="lvKvh5-uWPCNPsoE2FLj-20" value="+getdonateditem() : Item" style="text;html=1;align=left;verticalAlign=bottom;whiteSpace=wrap;rounded=0;fontSize=12;spacingTop=7;spacingBottom=-7;labelBackgroundColor=none;fontColor=#1D3557;" parent="lvKvh5-uWPCNPsoE2FLj-9" vertex="1">
          <mxGeometry y="154" width="210" height="20" as="geometry" />
        </mxCell>
        <mxCell id="lvKvh5-uWPCNPsoE2FLj-21" value="+getdonatedAmount() : double" style="text;html=1;align=left;verticalAlign=bottom;whiteSpace=wrap;rounded=0;fontSize=12;spacingTop=-17;spacingBottom=-5;labelBackgroundColor=none;fontColor=#1D3557;" parent="lvKvh5-uWPCNPsoE2FLj-9" vertex="1">
          <mxGeometry y="174" width="210" height="21" as="geometry" />
        </mxCell>
        <mxCell id="l-ATcEgu00QKDk7hao4Y-12" value="+viewdonationDetail(donation : Donation) : Donation_Detail" style="text;html=1;align=left;verticalAlign=bottom;whiteSpace=wrap;rounded=0;fontSize=12;spacingTop=-17;spacingBottom=-5;labelBackgroundColor=none;fontColor=#1D3557;" parent="lvKvh5-uWPCNPsoE2FLj-9" vertex="1">
          <mxGeometry y="195" width="210" height="33" as="geometry" />
        </mxCell>
        <mxCell id="l-ATcEgu00QKDk7hao4Y-13" value="+calculateTotalPrice() : float" style="text;html=1;align=left;verticalAlign=bottom;whiteSpace=wrap;rounded=0;fontSize=12;spacingTop=7;spacingBottom=-18;labelBackgroundColor=none;fontColor=#1D3557;" parent="lvKvh5-uWPCNPsoE2FLj-9" vertex="1">
          <mxGeometry y="228" width="210" height="3" as="geometry" />
        </mxCell>
        <mxCell id="EEnSZuUMuqlkZW2_UFZi-41" value="&amp;nbsp;&amp;nbsp;" style="text;html=1;align=left;verticalAlign=bottom;whiteSpace=wrap;rounded=0;fontSize=12;spacingTop=7;spacingBottom=-7;labelBackgroundColor=none;fontColor=#1D3557;" parent="lvKvh5-uWPCNPsoE2FLj-9" vertex="1">
          <mxGeometry y="231" width="210" height="20" as="geometry" />
        </mxCell>
        <mxCell id="EEnSZuUMuqlkZW2_UFZi-40" value="+toString() : string" style="text;html=1;align=left;verticalAlign=bottom;whiteSpace=wrap;rounded=0;fontSize=12;spacingTop=7;spacingBottom=-7;labelBackgroundColor=none;fontColor=#1D3557;" parent="lvKvh5-uWPCNPsoE2FLj-9" vertex="1">
          <mxGeometry y="251" width="210" height="20" as="geometry" />
        </mxCell>
        <mxCell id="l-ATcEgu00QKDk7hao4Y-0" value="" style="endArrow=diamondThin;endFill=0;endSize=24;html=1;rounded=0;entryX=1;entryY=0;entryDx=0;entryDy=0;labelBackgroundColor=none;strokeColor=#457B9D;fontColor=default;" parent="WIyWlLk6GJQsqaUBKTNV-1" edge="1">
          <mxGeometry width="160" relative="1" as="geometry">
            <mxPoint x="1853" y="1171" as="sourcePoint" />
            <mxPoint x="1476" y="660.9999999999999" as="targetPoint" />
            <Array as="points">
              <mxPoint x="1853" y="871" />
              <mxPoint x="1515" y="871" />
              <mxPoint x="1515" y="701" />
            </Array>
          </mxGeometry>
        </mxCell>
        <mxCell id="l-ATcEgu00QKDk7hao4Y-2" value="1" style="text;html=1;align=center;verticalAlign=middle;whiteSpace=wrap;rounded=0;fontSize=12;spacingLeft=-9;fontStyle=1;labelBackgroundColor=none;fontColor=#1D3557;" parent="WIyWlLk6GJQsqaUBKTNV-1" vertex="1">
          <mxGeometry x="1922" y="1309" width="50" height="20" as="geometry" />
        </mxCell>
        <mxCell id="l-ATcEgu00QKDk7hao4Y-14" value="has&amp;nbsp;" style="text;html=1;align=center;verticalAlign=middle;whiteSpace=wrap;rounded=0;" parent="WIyWlLk6GJQsqaUBKTNV-1" vertex="1">
          <mxGeometry x="2001" y="1304" width="60" height="30" as="geometry" />
        </mxCell>
        <mxCell id="EEnSZuUMuqlkZW2_UFZi-12" value="Receipt" style="swimlane;fontStyle=1;align=center;verticalAlign=top;childLayout=stackLayout;horizontal=1;startSize=26;horizontalStack=0;resizeParent=1;resizeLast=0;collapsible=1;marginBottom=0;rounded=0;shadow=0;strokeWidth=1;fontSize=13;labelBackgroundColor=none;fillColor=#A8DADC;strokeColor=#457B9D;fontColor=#1D3557;" parent="WIyWlLk6GJQsqaUBKTNV-1" vertex="1">
          <mxGeometry x="1719" y="1595" width="220" height="181" as="geometry">
            <mxRectangle x="340" y="380" width="170" height="26" as="alternateBounds" />
          </mxGeometry>
        </mxCell>
        <mxCell id="EEnSZuUMuqlkZW2_UFZi-13" value="- receiptID : string" style="text;html=1;align=left;verticalAlign=middle;whiteSpace=wrap;rounded=0;fontSize=12;spacingTop=6;labelBackgroundColor=none;fontColor=#1D3557;" parent="EEnSZuUMuqlkZW2_UFZi-12" vertex="1">
          <mxGeometry y="26" width="220" height="20" as="geometry" />
        </mxCell>
        <mxCell id="EEnSZuUMuqlkZW2_UFZi-33" value="-donorName : string" style="text;html=1;align=left;verticalAlign=middle;whiteSpace=wrap;rounded=0;fontSize=12;spacingTop=6;labelBackgroundColor=none;fontColor=#1D3557;" parent="EEnSZuUMuqlkZW2_UFZi-12" vertex="1">
          <mxGeometry y="46" width="220" height="20" as="geometry" />
        </mxCell>
        <mxCell id="EEnSZuUMuqlkZW2_UFZi-34" value="-donationDate : string" style="text;html=1;align=left;verticalAlign=middle;whiteSpace=wrap;rounded=0;fontSize=12;spacingTop=6;labelBackgroundColor=none;fontColor=#1D3557;" parent="EEnSZuUMuqlkZW2_UFZi-12" vertex="1">
          <mxGeometry y="66" width="220" height="20" as="geometry" />
        </mxCell>
        <mxCell id="EEnSZuUMuqlkZW2_UFZi-42" value="-donatedItems : string" style="text;html=1;align=left;verticalAlign=middle;whiteSpace=wrap;rounded=0;fontSize=12;spacingTop=6;labelBackgroundColor=none;fontColor=#1D3557;" parent="EEnSZuUMuqlkZW2_UFZi-12" vertex="1">
          <mxGeometry y="86" width="220" height="20" as="geometry" />
        </mxCell>
        <mxCell id="EEnSZuUMuqlkZW2_UFZi-44" value="-donatedAmount : string" style="text;html=1;align=left;verticalAlign=middle;whiteSpace=wrap;rounded=0;fontSize=12;spacingTop=6;labelBackgroundColor=none;fontColor=#1D3557;" parent="EEnSZuUMuqlkZW2_UFZi-12" vertex="1">
          <mxGeometry y="106" width="220" height="20" as="geometry" />
        </mxCell>
        <mxCell id="EEnSZuUMuqlkZW2_UFZi-17" value="" style="line;html=1;strokeWidth=1;align=left;verticalAlign=middle;spacingTop=-1;spacingLeft=3;spacingRight=3;rotatable=0;labelPosition=right;points=[];portConstraint=eastwest;labelBackgroundColor=none;fillColor=#A8DADC;strokeColor=#457B9D;fontColor=#1D3557;" parent="EEnSZuUMuqlkZW2_UFZi-12" vertex="1">
          <mxGeometry y="126" width="220" height="8" as="geometry" />
        </mxCell>
        <mxCell id="EEnSZuUMuqlkZW2_UFZi-36" value="+Receipt()&amp;nbsp;" style="text;html=1;align=left;verticalAlign=middle;whiteSpace=wrap;rounded=0;fontSize=12;spacingTop=6;labelBackgroundColor=none;fontColor=#1D3557;" parent="EEnSZuUMuqlkZW2_UFZi-12" vertex="1">
          <mxGeometry y="134" width="220" height="20" as="geometry" />
        </mxCell>
        <mxCell id="EEnSZuUMuqlkZW2_UFZi-45" value="+generateBarcode() : void" style="text;html=1;align=left;verticalAlign=middle;whiteSpace=wrap;rounded=0;fontSize=12;spacingTop=6;labelBackgroundColor=none;fontColor=#1D3557;" parent="EEnSZuUMuqlkZW2_UFZi-12" vertex="1">
          <mxGeometry y="154" width="220" height="20" as="geometry" />
        </mxCell>
        <mxCell id="EEnSZuUMuqlkZW2_UFZi-19" value="" style="endArrow=diamondThin;endFill=0;endSize=24;html=1;rounded=0;labelBackgroundColor=none;strokeColor=#457B9D;fontColor=default;exitX=0.5;exitY=0;exitDx=0;exitDy=0;entryX=0.5;entryY=1;entryDx=0;entryDy=0;" parent="WIyWlLk6GJQsqaUBKTNV-1" source="EEnSZuUMuqlkZW2_UFZi-12" target="t_3KVrFBqGaoaHZ3aIhR-126" edge="1">
          <mxGeometry width="160" relative="1" as="geometry">
            <mxPoint x="1826" y="1593" as="sourcePoint" />
            <mxPoint x="1827" y="1498" as="targetPoint" />
            <Array as="points" />
          </mxGeometry>
        </mxCell>
        <mxCell id="EEnSZuUMuqlkZW2_UFZi-20" value="1" style="text;html=1;align=center;verticalAlign=middle;whiteSpace=wrap;rounded=0;fontSize=12;spacingLeft=-9;fontStyle=1;labelBackgroundColor=none;fontColor=#1D3557;" parent="WIyWlLk6GJQsqaUBKTNV-1" vertex="1">
          <mxGeometry x="1820" y="1512" width="50" height="20" as="geometry" />
        </mxCell>
        <mxCell id="EEnSZuUMuqlkZW2_UFZi-21" value="1" style="text;html=1;align=center;verticalAlign=middle;whiteSpace=wrap;rounded=0;fontSize=12;spacingLeft=-9;fontStyle=1;labelBackgroundColor=none;fontColor=#1D3557;" parent="WIyWlLk6GJQsqaUBKTNV-1" vertex="1">
          <mxGeometry x="1820" y="1575" width="50" height="20" as="geometry" />
        </mxCell>
        <mxCell id="EEnSZuUMuqlkZW2_UFZi-46" value="" style="endArrow=block;endSize=16;endFill=0;html=1;rounded=0;edgeStyle=orthogonalEdgeStyle;labelBackgroundColor=none;strokeColor=#457B9D;fontColor=default;exitX=0.259;exitY=0;exitDx=0;exitDy=0;exitPerimeter=0;" parent="WIyWlLk6GJQsqaUBKTNV-1" source="t_3KVrFBqGaoaHZ3aIhR-132" edge="1">
          <mxGeometry width="160" relative="1" as="geometry">
            <mxPoint x="1131" y="538" as="sourcePoint" />
            <mxPoint x="1177" y="328" as="targetPoint" />
            <Array as="points">
              <mxPoint x="1245" y="537" />
              <mxPoint x="1245" y="384" />
              <mxPoint x="1177" y="384" />
            </Array>
          </mxGeometry>
        </mxCell>
        <mxCell id="EEnSZuUMuqlkZW2_UFZi-47" value="" style="endArrow=none;html=1;edgeStyle=orthogonalEdgeStyle;rounded=0;labelBackgroundColor=none;strokeColor=#457B9D;fontColor=default;exitX=0.667;exitY=0.003;exitDx=0;exitDy=0;exitPerimeter=0;" parent="WIyWlLk6GJQsqaUBKTNV-1" source="t_3KVrFBqGaoaHZ3aIhR-58" edge="1">
          <mxGeometry relative="1" as="geometry">
            <mxPoint x="978" y="517.5" as="sourcePoint" />
            <mxPoint x="1177" y="382" as="targetPoint" />
            <Array as="points">
              <mxPoint x="851" y="384" />
              <mxPoint x="1177" y="384" />
            </Array>
          </mxGeometry>
        </mxCell>
        <mxCell id="EEnSZuUMuqlkZW2_UFZi-48" value="" style="endArrow=block;endSize=16;endFill=0;html=1;rounded=0;entryX=0.5;entryY=1;entryDx=0;entryDy=0;edgeStyle=orthogonalEdgeStyle;labelBackgroundColor=none;strokeColor=#457B9D;fontColor=default;" parent="WIyWlLk6GJQsqaUBKTNV-1" edge="1">
          <mxGeometry width="160" relative="1" as="geometry">
            <mxPoint x="906" y="345" as="sourcePoint" />
            <mxPoint x="906" y="311" as="targetPoint" />
            <Array as="points">
              <mxPoint x="906" y="327" />
              <mxPoint x="906" y="327" />
            </Array>
          </mxGeometry>
        </mxCell>
        <mxCell id="EEnSZuUMuqlkZW2_UFZi-49" value="" style="endArrow=none;dashed=1;html=1;rounded=0;exitX=0.123;exitY=0.006;exitDx=0;exitDy=0;exitPerimeter=0;entryX=0.018;entryY=0.001;entryDx=0;entryDy=0;entryPerimeter=0;" parent="WIyWlLk6GJQsqaUBKTNV-1" target="t_3KVrFBqGaoaHZ3aIhR-132" edge="1">
          <mxGeometry width="50" height="50" relative="1" as="geometry">
            <mxPoint x="822" y="395" as="sourcePoint" />
            <mxPoint x="1035" y="562" as="targetPoint" />
            <Array as="points">
              <mxPoint x="822" y="344" />
              <mxPoint x="1034" y="344" />
            </Array>
          </mxGeometry>
        </mxCell>
        <mxCell id="aDTa8_y4Vyvqa4S_tPzD-2" value="&lt;&lt;Interface&gt;&gt;&#xa;IModifiable" style="swimlane;fontStyle=1;align=center;verticalAlign=middle;childLayout=stackLayout;horizontal=1;startSize=45;horizontalStack=0;resizeParent=1;resizeLast=0;collapsible=1;marginBottom=0;rounded=0;shadow=0;strokeWidth=1;fontSize=15;labelBackgroundColor=none;fillColor=#A8DADC;strokeColor=#457B9D;fontColor=#1D3557;" parent="WIyWlLk6GJQsqaUBKTNV-1" vertex="1">
          <mxGeometry x="1369" y="264" width="270" height="178" as="geometry">
            <mxRectangle x="230" y="140" width="160" height="26" as="alternateBounds" />
          </mxGeometry>
        </mxCell>
        <mxCell id="aDTa8_y4Vyvqa4S_tPzD-3" value="" style="line;html=1;strokeWidth=1;align=left;verticalAlign=middle;spacingTop=-1;spacingLeft=3;spacingRight=3;rotatable=0;labelPosition=right;points=[];portConstraint=eastwest;labelBackgroundColor=none;fillColor=#A8DADC;strokeColor=#457B9D;fontColor=#1D3557;" parent="aDTa8_y4Vyvqa4S_tPzD-2" vertex="1">
          <mxGeometry y="45" width="270" height="10" as="geometry" />
        </mxCell>
        <mxCell id="aDTa8_y4Vyvqa4S_tPzD-4" value="+add() : boolean" style="text;html=1;align=left;verticalAlign=top;whiteSpace=wrap;rounded=0;fontSize=12;spacingBottom=-11;spacingTop=7;labelBackgroundColor=none;fontColor=#1D3557;" parent="aDTa8_y4Vyvqa4S_tPzD-2" vertex="1">
          <mxGeometry y="55" width="270" height="20" as="geometry" />
        </mxCell>
        <mxCell id="aDTa8_y4Vyvqa4S_tPzD-5" value="+edit() : boolean" style="text;html=1;align=left;verticalAlign=top;whiteSpace=wrap;rounded=0;fontSize=12;spacingBottom=-11;spacingTop=7;labelBackgroundColor=none;fontColor=#1D3557;" parent="aDTa8_y4Vyvqa4S_tPzD-2" vertex="1">
          <mxGeometry y="75" width="270" height="20" as="geometry" />
        </mxCell>
        <mxCell id="aDTa8_y4Vyvqa4S_tPzD-6" value="+remove() : boolean" style="text;html=1;align=left;verticalAlign=top;whiteSpace=wrap;rounded=0;fontSize=12;spacingBottom=-11;spacingTop=7;labelBackgroundColor=none;fontColor=#1D3557;" parent="aDTa8_y4Vyvqa4S_tPzD-2" vertex="1">
          <mxGeometry y="95" width="270" height="20" as="geometry" />
        </mxCell>
        <mxCell id="aDTa8_y4Vyvqa4S_tPzD-8" value="+viewall() : PDO&amp;nbsp;" style="text;html=1;align=left;verticalAlign=top;whiteSpace=wrap;rounded=0;fontSize=12;spacingBottom=-11;spacingTop=7;labelBackgroundColor=none;fontColor=#1D3557;" parent="aDTa8_y4Vyvqa4S_tPzD-2" vertex="1">
          <mxGeometry y="115" width="270" height="20" as="geometry" />
        </mxCell>
        <mxCell id="E7Js1CmvD6nsmvyOke-_-55" value="+read() : array" style="text;html=1;align=left;verticalAlign=top;whiteSpace=wrap;rounded=0;fontSize=12;spacingBottom=-11;spacingTop=7;labelBackgroundColor=none;fontColor=#1D3557;" parent="aDTa8_y4Vyvqa4S_tPzD-2" vertex="1">
          <mxGeometry y="135" width="270" height="20" as="geometry" />
        </mxCell>
        <mxCell id="aDTa8_y4Vyvqa4S_tPzD-9" value="" style="endArrow=block;endSize=16;endFill=0;html=1;rounded=0;edgeStyle=orthogonalEdgeStyle;labelBackgroundColor=none;strokeColor=#457B9D;fontColor=default;" parent="WIyWlLk6GJQsqaUBKTNV-1" edge="1">
          <mxGeometry width="160" relative="1" as="geometry">
            <mxPoint x="1498" y="500" as="sourcePoint" />
            <mxPoint x="1498.01" y="442" as="targetPoint" />
            <Array as="points">
              <mxPoint x="1498" y="495" />
            </Array>
          </mxGeometry>
        </mxCell>
        <mxCell id="aDTa8_y4Vyvqa4S_tPzD-11" value="" style="endArrow=none;dashed=1;html=1;rounded=0;exitX=0.5;exitY=0;exitDx=0;exitDy=0;" parent="WIyWlLk6GJQsqaUBKTNV-1" source="t_3KVrFBqGaoaHZ3aIhR-132" edge="1">
          <mxGeometry width="50" height="50" relative="1" as="geometry">
            <mxPoint x="1387" y="529" as="sourcePoint" />
            <mxPoint x="1497" y="498" as="targetPoint" />
            <Array as="points">
              <mxPoint x="1251" y="498" />
            </Array>
          </mxGeometry>
        </mxCell>
        <mxCell id="aDTa8_y4Vyvqa4S_tPzD-12" value="" style="endArrow=none;dashed=1;html=1;rounded=0;exitX=0.75;exitY=0;exitDx=0;exitDy=0;" parent="WIyWlLk6GJQsqaUBKTNV-1" source="t_3KVrFBqGaoaHZ3aIhR-126" edge="1">
          <mxGeometry width="50" height="50" relative="1" as="geometry">
            <mxPoint x="1536" y="538" as="sourcePoint" />
            <mxPoint x="1499" y="498" as="targetPoint" />
            <Array as="points">
              <mxPoint x="1882" y="500" />
            </Array>
          </mxGeometry>
        </mxCell>
        <mxCell id="aDTa8_y4Vyvqa4S_tPzD-14" value="" style="endArrow=none;dashed=1;html=1;rounded=0;exitX=0.5;exitY=0;exitDx=0;exitDy=0;" parent="WIyWlLk6GJQsqaUBKTNV-1" source="lvKvh5-uWPCNPsoE2FLj-9" edge="1">
          <mxGeometry width="50" height="50" relative="1" as="geometry">
            <mxPoint x="1950" y="498" as="sourcePoint" />
            <mxPoint x="1881" y="498" as="targetPoint" />
            <Array as="points">
              <mxPoint x="2234" y="498" />
            </Array>
          </mxGeometry>
        </mxCell>
        <mxCell id="aDTa8_y4Vyvqa4S_tPzD-17" value="" style="swimlane;fontStyle=1;align=center;verticalAlign=top;childLayout=stackLayout;horizontal=1;startSize=26;horizontalStack=0;resizeParent=1;resizeLast=0;collapsible=1;marginBottom=0;rounded=0;shadow=0;strokeWidth=1;fontSize=13;labelBackgroundColor=none;fillColor=#A8DADC;strokeColor=#457B9D;fontColor=#1D3557;" parent="WIyWlLk6GJQsqaUBKTNV-1" vertex="1">
          <mxGeometry x="1988" y="1600" width="220" height="106" as="geometry">
            <mxRectangle x="340" y="380" width="170" height="26" as="alternateBounds" />
          </mxGeometry>
        </mxCell>
        <mxCell id="aDTa8_y4Vyvqa4S_tPzD-18" value="Procurement" style="text;html=1;align=left;verticalAlign=middle;whiteSpace=wrap;rounded=0;fontSize=12;labelBackgroundColor=none;fontColor=#1D3557;" parent="aDTa8_y4Vyvqa4S_tPzD-17" vertex="1">
          <mxGeometry y="26" width="220" height="20" as="geometry" />
        </mxCell>
        <mxCell id="aDTa8_y4Vyvqa4S_tPzD-19" value="Warehouse" style="text;html=1;align=left;verticalAlign=middle;whiteSpace=wrap;rounded=0;fontSize=12;labelBackgroundColor=none;fontColor=#1D3557;" parent="aDTa8_y4Vyvqa4S_tPzD-17" vertex="1">
          <mxGeometry y="46" width="220" height="20" as="geometry" />
        </mxCell>
        <mxCell id="aDTa8_y4Vyvqa4S_tPzD-21" value="Program" style="text;html=1;align=left;verticalAlign=middle;whiteSpace=wrap;rounded=0;fontSize=12;labelBackgroundColor=none;fontColor=#1D3557;" parent="aDTa8_y4Vyvqa4S_tPzD-17" vertex="1">
          <mxGeometry y="66" width="220" height="20" as="geometry" />
        </mxCell>
        <mxCell id="aDTa8_y4Vyvqa4S_tPzD-22" value="Executive" style="text;html=1;align=left;verticalAlign=middle;whiteSpace=wrap;rounded=0;fontSize=12;labelBackgroundColor=none;fontColor=#1D3557;" parent="aDTa8_y4Vyvqa4S_tPzD-17" vertex="1">
          <mxGeometry y="86" width="220" height="20" as="geometry" />
        </mxCell>
        <mxCell id="aDTa8_y4Vyvqa4S_tPzD-20" value="&amp;lt;&amp;lt;Enumeration&amp;gt;&amp;gt;&lt;div&gt;&lt;b&gt;Roles&lt;/b&gt;&lt;/div&gt;" style="html=1;whiteSpace=wrap;fontSize=15;labelBackgroundColor=none;fillColor=#A8DADC;strokeColor=#457B9D;fontColor=#1D3557;" parent="WIyWlLk6GJQsqaUBKTNV-1" vertex="1">
          <mxGeometry x="1988" y="1575" width="220" height="50" as="geometry" />
        </mxCell>
        <mxCell id="06Cd4AgThaGGWCjbHUdQ-15" value="" style="endArrow=classic;html=1;rounded=0;entryX=0;entryY=0;entryDx=0;entryDy=0;" parent="WIyWlLk6GJQsqaUBKTNV-1" target="gEmX9rRlGxYNB2lgslIP-125" edge="1">
          <mxGeometry width="50" height="50" relative="1" as="geometry">
            <mxPoint x="672" y="1159" as="sourcePoint" />
            <mxPoint x="861" y="1165" as="targetPoint" />
            <Array as="points">
              <mxPoint x="672" y="1342" />
            </Array>
          </mxGeometry>
        </mxCell>
        <mxCell id="06Cd4AgThaGGWCjbHUdQ-17" value="" style="endArrow=classic;html=1;rounded=0;exitX=0.5;exitY=1;exitDx=0;exitDy=0;entryX=0.5;entryY=0;entryDx=0;entryDy=0;" parent="WIyWlLk6GJQsqaUBKTNV-1" source="gEmX9rRlGxYNB2lgslIP-68" target="t_3KVrFBqGaoaHZ3aIhR-150" edge="1">
          <mxGeometry width="50" height="50" relative="1" as="geometry">
            <mxPoint x="942" y="1194" as="sourcePoint" />
            <mxPoint x="1118" y="1196" as="targetPoint" />
            <Array as="points">
              <mxPoint x="1010" y="1169" />
              <mxPoint x="1121" y="1169" />
            </Array>
          </mxGeometry>
        </mxCell>
        <mxCell id="06Cd4AgThaGGWCjbHUdQ-23" value="" style="endArrow=classic;html=1;rounded=0;entryX=1;entryY=0;entryDx=0;entryDy=0;exitX=0.5;exitY=1;exitDx=0;exitDy=0;" parent="WIyWlLk6GJQsqaUBKTNV-1" source="t_3KVrFBqGaoaHZ3aIhR-137" target="E7Js1CmvD6nsmvyOke-_-29" edge="1">
          <mxGeometry width="50" height="50" relative="1" as="geometry">
            <mxPoint x="1429.7499999999995" y="1114" as="sourcePoint" />
            <mxPoint x="739" y="1878.0000000000005" as="targetPoint" />
            <Array as="points">
              <mxPoint x="1430" y="1190" />
              <mxPoint x="1571" y="1190" />
              <mxPoint x="1569" y="1467" />
              <mxPoint x="1569" y="1729" />
              <mxPoint x="1554" y="1729" />
            </Array>
          </mxGeometry>
        </mxCell>
        <mxCell id="06Cd4AgThaGGWCjbHUdQ-24" value="places" style="text;strokeColor=none;fillColor=none;align=left;verticalAlign=middle;spacingLeft=4;spacingRight=4;overflow=hidden;points=[[0,0.5],[1,0.5]];portConstraint=eastwest;rotatable=0;whiteSpace=wrap;html=1;" parent="WIyWlLk6GJQsqaUBKTNV-1" vertex="1">
          <mxGeometry x="1454" y="1164" width="80" height="30" as="geometry" />
        </mxCell>
        <mxCell id="06Cd4AgThaGGWCjbHUdQ-25" value="" style="endArrow=classic;html=1;rounded=0;exitX=0.5;exitY=1;exitDx=0;exitDy=0;entryX=0.445;entryY=0.006;entryDx=0;entryDy=0;entryPerimeter=0;" parent="WIyWlLk6GJQsqaUBKTNV-1" source="t_3KVrFBqGaoaHZ3aIhR-137" target="t_3KVrFBqGaoaHZ3aIhR-158" edge="1">
          <mxGeometry width="50" height="50" relative="1" as="geometry">
            <mxPoint x="1464" y="1196" as="sourcePoint" />
            <mxPoint x="1514" y="1146" as="targetPoint" />
            <Array as="points">
              <mxPoint x="1343" y="1184" />
              <mxPoint x="1410" y="1184" />
            </Array>
          </mxGeometry>
        </mxCell>
        <mxCell id="06Cd4AgThaGGWCjbHUdQ-29" value="" style="endArrow=classic;html=1;rounded=0;exitX=1;exitY=0.5;exitDx=0;exitDy=0;" parent="WIyWlLk6GJQsqaUBKTNV-1" source="gEmX9rRlGxYNB2lgslIP-87" edge="1">
          <mxGeometry width="50" height="50" relative="1" as="geometry">
            <mxPoint x="1870" y="1003" as="sourcePoint" />
            <mxPoint x="1963" y="1012" as="targetPoint" />
          </mxGeometry>
        </mxCell>
        <mxCell id="06Cd4AgThaGGWCjbHUdQ-32" value="" style="endArrow=classic;html=1;rounded=0;exitX=1;exitY=0.25;exitDx=0;exitDy=0;entryX=0;entryY=0.25;entryDx=0;entryDy=0;" parent="WIyWlLk6GJQsqaUBKTNV-1" source="EEnSZuUMuqlkZW2_UFZi-31" target="lvKvh5-uWPCNPsoE2FLj-20" edge="1">
          <mxGeometry width="50" height="50" relative="1" as="geometry">
            <mxPoint x="2019" y="1322" as="sourcePoint" />
            <mxPoint x="2069" y="1272" as="targetPoint" />
          </mxGeometry>
        </mxCell>
        <mxCell id="06Cd4AgThaGGWCjbHUdQ-34" value="1" style="text;html=1;align=center;verticalAlign=middle;whiteSpace=wrap;rounded=0;fontSize=12;spacingLeft=-9;fontStyle=1;labelBackgroundColor=none;fontColor=#1D3557;" parent="WIyWlLk6GJQsqaUBKTNV-1" vertex="1">
          <mxGeometry x="2091" y="1309" width="50" height="20" as="geometry" />
        </mxCell>
        <mxCell id="E7Js1CmvD6nsmvyOke-_-1" value="" style="endArrow=classic;html=1;rounded=0;exitX=0.5;exitY=1;exitDx=0;exitDy=0;entryX=0.778;entryY=-0.16;entryDx=0;entryDy=0;entryPerimeter=0;" parent="WIyWlLk6GJQsqaUBKTNV-1" source="gEmX9rRlGxYNB2lgslIP-18" edge="1">
          <mxGeometry width="50" height="50" relative="1" as="geometry">
            <mxPoint x="760" y="1860.2000000000005" as="sourcePoint" />
            <mxPoint x="1433.8999999999996" y="1453" as="targetPoint" />
            <Array as="points">
              <mxPoint x="747" y="1927" />
              <mxPoint x="1438" y="1925" />
            </Array>
          </mxGeometry>
        </mxCell>
        <mxCell id="E7Js1CmvD6nsmvyOke-_-2" value="supplies" style="text;html=1;align=center;verticalAlign=middle;whiteSpace=wrap;rounded=0;" parent="WIyWlLk6GJQsqaUBKTNV-1" vertex="1">
          <mxGeometry x="980" y="1906" width="60" height="30" as="geometry" />
        </mxCell>
        <mxCell id="E7Js1CmvD6nsmvyOke-_-6" value="Order" style="swimlane;fontStyle=1;align=center;verticalAlign=top;childLayout=stackLayout;horizontal=1;startSize=26;horizontalStack=0;resizeParent=1;resizeLast=0;collapsible=1;marginBottom=0;rounded=0;shadow=0;strokeWidth=1;fontSize=15;labelBackgroundColor=none;fillColor=#A8DADC;strokeColor=#457B9D;fontColor=#1D3557;" parent="WIyWlLk6GJQsqaUBKTNV-1" vertex="1">
          <mxGeometry x="1187" y="1575" width="210" height="304" as="geometry">
            <mxRectangle x="130" y="380" width="160" height="26" as="alternateBounds" />
          </mxGeometry>
        </mxCell>
        <mxCell id="E7Js1CmvD6nsmvyOke-_-7" value="-orderID : int" style="text;html=1;align=left;verticalAlign=middle;whiteSpace=wrap;rounded=0;fontSize=12;spacingTop=6;labelBackgroundColor=none;fontColor=#1D3557;" parent="E7Js1CmvD6nsmvyOke-_-6" vertex="1">
          <mxGeometry y="26" width="210" height="20" as="geometry" />
        </mxCell>
        <mxCell id="E7Js1CmvD6nsmvyOke-_-13" value="-status : OrderStatus" style="text;html=1;align=left;verticalAlign=middle;whiteSpace=wrap;rounded=0;fontSize=12;spacingTop=6;labelBackgroundColor=none;fontColor=#1D3557;" parent="E7Js1CmvD6nsmvyOke-_-6" vertex="1">
          <mxGeometry y="46" width="210" height="20" as="geometry" />
        </mxCell>
        <mxCell id="E7Js1CmvD6nsmvyOke-_-23" value="-requesterID : int&amp;nbsp;" style="text;html=1;align=left;verticalAlign=middle;whiteSpace=wrap;rounded=0;fontSize=12;spacingTop=6;labelBackgroundColor=none;fontColor=#1D3557;" parent="E7Js1CmvD6nsmvyOke-_-6" vertex="1">
          <mxGeometry y="66" width="210" height="20" as="geometry" />
        </mxCell>
        <mxCell id="E7Js1CmvD6nsmvyOke-_-35" value="-orderItems [ ] : Item" style="text;html=1;align=left;verticalAlign=middle;whiteSpace=wrap;rounded=0;fontSize=12;spacingTop=6;labelBackgroundColor=none;fontColor=#1D3557;" parent="E7Js1CmvD6nsmvyOke-_-6" vertex="1">
          <mxGeometry y="86" width="210" height="20" as="geometry" />
        </mxCell>
        <mxCell id="E7Js1CmvD6nsmvyOke-_-10" value="" style="line;html=1;strokeWidth=1;align=left;verticalAlign=middle;spacingTop=-1;spacingLeft=3;spacingRight=3;rotatable=0;labelPosition=right;points=[];portConstraint=eastwest;labelBackgroundColor=none;fillColor=#A8DADC;strokeColor=#457B9D;fontColor=#1D3557;" parent="E7Js1CmvD6nsmvyOke-_-6" vertex="1">
          <mxGeometry y="106" width="210" height="8" as="geometry" />
        </mxCell>
        <mxCell id="E7Js1CmvD6nsmvyOke-_-15" value="+setStatus(OrderStatus) : void" style="text;html=1;align=left;verticalAlign=middle;whiteSpace=wrap;rounded=0;fontSize=12;spacingTop=6;labelBackgroundColor=none;fontColor=#1D3557;" parent="E7Js1CmvD6nsmvyOke-_-6" vertex="1">
          <mxGeometry y="114" width="210" height="20" as="geometry" />
        </mxCell>
        <mxCell id="E7Js1CmvD6nsmvyOke-_-28" value="+getStatus() : OrderStatus" style="text;html=1;align=left;verticalAlign=middle;whiteSpace=wrap;rounded=0;fontSize=12;spacingTop=6;labelBackgroundColor=none;fontColor=#1D3557;" parent="E7Js1CmvD6nsmvyOke-_-6" vertex="1">
          <mxGeometry y="134" width="210" height="20" as="geometry" />
        </mxCell>
        <mxCell id="E7Js1CmvD6nsmvyOke-_-29" value="+getOrderID() : int" style="text;html=1;align=left;verticalAlign=middle;whiteSpace=wrap;rounded=0;fontSize=12;spacingTop=6;labelBackgroundColor=none;fontColor=#1D3557;" parent="E7Js1CmvD6nsmvyOke-_-6" vertex="1">
          <mxGeometry y="154" width="210" height="20" as="geometry" />
        </mxCell>
        <mxCell id="E7Js1CmvD6nsmvyOke-_-30" value="+addItem(item : Item) : void" style="text;html=1;align=left;verticalAlign=middle;whiteSpace=wrap;rounded=0;fontSize=12;spacingTop=6;labelBackgroundColor=none;fontColor=#1D3557;" parent="E7Js1CmvD6nsmvyOke-_-6" vertex="1">
          <mxGeometry y="174" width="210" height="20" as="geometry" />
        </mxCell>
        <mxCell id="E7Js1CmvD6nsmvyOke-_-33" value="+removeItem(item : Item) : void" style="text;html=1;align=left;verticalAlign=middle;whiteSpace=wrap;rounded=0;fontSize=12;spacingTop=6;labelBackgroundColor=none;fontColor=#1D3557;" parent="E7Js1CmvD6nsmvyOke-_-6" vertex="1">
          <mxGeometry y="194" width="210" height="20" as="geometry" />
        </mxCell>
        <mxCell id="E7Js1CmvD6nsmvyOke-_-34" value="+calcTotalnoOfItems() : int" style="text;html=1;align=left;verticalAlign=middle;whiteSpace=wrap;rounded=0;fontSize=12;spacingTop=6;labelBackgroundColor=none;fontColor=#1D3557;" parent="E7Js1CmvD6nsmvyOke-_-6" vertex="1">
          <mxGeometry y="214" width="210" height="20" as="geometry" />
        </mxCell>
        <mxCell id="E7Js1CmvD6nsmvyOke-_-36" value="+updateItemQuantity(itemID, int quantity ) : void" style="text;html=1;align=left;verticalAlign=middle;whiteSpace=wrap;rounded=0;fontSize=12;spacingTop=6;labelBackgroundColor=none;fontColor=#1D3557;" parent="E7Js1CmvD6nsmvyOke-_-6" vertex="1">
          <mxGeometry y="234" width="210" height="29" as="geometry" />
        </mxCell>
        <mxCell id="E7Js1CmvD6nsmvyOke-_-37" value="+calcTotalQuantity() : int" style="text;html=1;align=left;verticalAlign=middle;whiteSpace=wrap;rounded=0;fontSize=12;spacingTop=6;labelBackgroundColor=none;fontColor=#1D3557;" parent="E7Js1CmvD6nsmvyOke-_-6" vertex="1">
          <mxGeometry y="263" width="210" height="29" as="geometry" />
        </mxCell>
        <mxCell id="E7Js1CmvD6nsmvyOke-_-17" value="Package Coordinator" style="text;html=1;align=left;verticalAlign=middle;whiteSpace=wrap;rounded=0;fontSize=10;labelBackgroundColor=none;fontColor=#1D3557;" parent="WIyWlLk6GJQsqaUBKTNV-1" vertex="1">
          <mxGeometry x="1948" y="1790" width="220" height="20" as="geometry" />
        </mxCell>
        <mxCell id="E7Js1CmvD6nsmvyOke-_-18" value="" style="swimlane;fontStyle=1;align=center;verticalAlign=top;childLayout=stackLayout;horizontal=1;startSize=26;horizontalStack=0;resizeParent=1;resizeLast=0;collapsible=1;marginBottom=0;rounded=0;shadow=0;strokeWidth=1;fontSize=13;labelBackgroundColor=none;fillColor=#A8DADC;strokeColor=#457B9D;fontColor=#1D3557;" parent="WIyWlLk6GJQsqaUBKTNV-1" vertex="1">
          <mxGeometry x="1948" y="1800" width="220" height="106" as="geometry">
            <mxRectangle x="340" y="380" width="170" height="26" as="alternateBounds" />
          </mxGeometry>
        </mxCell>
        <mxCell id="E7Js1CmvD6nsmvyOke-_-20" value="received" style="text;html=1;align=left;verticalAlign=middle;whiteSpace=wrap;rounded=0;fontSize=12;labelBackgroundColor=none;fontColor=#1D3557;" parent="E7Js1CmvD6nsmvyOke-_-18" vertex="1">
          <mxGeometry y="26" width="220" height="20" as="geometry" />
        </mxCell>
        <mxCell id="E7Js1CmvD6nsmvyOke-_-22" value="placed" style="text;html=1;align=left;verticalAlign=middle;whiteSpace=wrap;rounded=0;fontSize=12;labelBackgroundColor=none;fontColor=#1D3557;" parent="E7Js1CmvD6nsmvyOke-_-18" vertex="1">
          <mxGeometry y="46" width="220" height="20" as="geometry" />
        </mxCell>
        <mxCell id="E7Js1CmvD6nsmvyOke-_-24" value="inprogress" style="text;html=1;align=left;verticalAlign=middle;whiteSpace=wrap;rounded=0;fontSize=12;labelBackgroundColor=none;fontColor=#1D3557;" parent="E7Js1CmvD6nsmvyOke-_-18" vertex="1">
          <mxGeometry y="66" width="220" height="20" as="geometry" />
        </mxCell>
        <mxCell id="E7Js1CmvD6nsmvyOke-_-21" value="&amp;lt;&amp;lt;Enumeration&amp;gt;&amp;gt;&lt;div&gt;&lt;b&gt;OrderStatus&lt;/b&gt;&lt;/div&gt;" style="html=1;whiteSpace=wrap;fontSize=15;labelBackgroundColor=none;fillColor=#A8DADC;strokeColor=#457B9D;fontColor=#1D3557;" parent="WIyWlLk6GJQsqaUBKTNV-1" vertex="1">
          <mxGeometry x="1948" y="1776" width="220" height="50" as="geometry" />
        </mxCell>
        <mxCell id="E7Js1CmvD6nsmvyOke-_-25" value="" style="endArrow=diamondThin;endFill=0;endSize=24;html=1;rounded=0;entryX=0.5;entryY=0;entryDx=0;entryDy=0;exitX=0.5;exitY=1;exitDx=0;exitDy=0;labelBackgroundColor=none;strokeColor=#457B9D;fontColor=default;" parent="WIyWlLk6GJQsqaUBKTNV-1" source="t_3KVrFBqGaoaHZ3aIhR-158" target="E7Js1CmvD6nsmvyOke-_-6" edge="1">
          <mxGeometry width="160" relative="1" as="geometry">
            <mxPoint x="1351" y="1577" as="sourcePoint" />
            <mxPoint x="1261" y="1575" as="targetPoint" />
          </mxGeometry>
        </mxCell>
        <mxCell id="E7Js1CmvD6nsmvyOke-_-26" value="*" style="text;html=1;align=center;verticalAlign=middle;whiteSpace=wrap;rounded=0;fontSize=15;spacingLeft=-9;fontStyle=1;labelBackgroundColor=none;fontColor=#1D3557;" parent="WIyWlLk6GJQsqaUBKTNV-1" vertex="1">
          <mxGeometry x="1381" y="1457" width="50" height="20" as="geometry" />
        </mxCell>
        <mxCell id="E7Js1CmvD6nsmvyOke-_-31" value="*" style="text;html=1;align=center;verticalAlign=middle;whiteSpace=wrap;rounded=0;fontSize=15;spacingLeft=-9;fontStyle=1;labelBackgroundColor=none;fontColor=#1D3557;" parent="WIyWlLk6GJQsqaUBKTNV-1" vertex="1">
          <mxGeometry x="1288" y="1541" width="50" height="20" as="geometry" />
        </mxCell>
        <mxCell id="E7Js1CmvD6nsmvyOke-_-38" value="" style="endArrow=classic;html=1;rounded=0;entryX=0.5;entryY=1;entryDx=0;entryDy=0;" parent="WIyWlLk6GJQsqaUBKTNV-1" target="E7Js1CmvD6nsmvyOke-_-6" edge="1">
          <mxGeometry width="50" height="50" relative="1" as="geometry">
            <mxPoint x="761" y="1861" as="sourcePoint" />
            <mxPoint x="1138" y="1827" as="targetPoint" />
            <Array as="points">
              <mxPoint x="792" y="1895" />
              <mxPoint x="1292" y="1897" />
            </Array>
          </mxGeometry>
        </mxCell>
        <mxCell id="E7Js1CmvD6nsmvyOke-_-39" value="receives" style="text;html=1;align=center;verticalAlign=middle;whiteSpace=wrap;rounded=0;rotation=0;" parent="WIyWlLk6GJQsqaUBKTNV-1" vertex="1">
          <mxGeometry x="974" y="1874" width="60" height="30" as="geometry" />
        </mxCell>
        <mxCell id="E7Js1CmvD6nsmvyOke-_-44" value="" style="endArrow=none;dashed=1;html=1;rounded=0;exitX=1;exitY=0;exitDx=0;exitDy=0;" parent="WIyWlLk6GJQsqaUBKTNV-1" source="t_3KVrFBqGaoaHZ3aIhR-162" edge="1">
          <mxGeometry width="50" height="50" relative="1" as="geometry">
            <mxPoint x="1683" y="933" as="sourcePoint" />
            <mxPoint x="1551" y="908" as="targetPoint" />
            <Array as="points">
              <mxPoint x="1551" y="1318" />
              <mxPoint x="1552" y="1147" />
            </Array>
          </mxGeometry>
        </mxCell>
        <mxCell id="E7Js1CmvD6nsmvyOke-_-45" value="" style="endArrow=classic;html=1;rounded=0;" parent="WIyWlLk6GJQsqaUBKTNV-1" edge="1">
          <mxGeometry width="50" height="50" relative="1" as="geometry">
            <mxPoint x="1479" y="662" as="sourcePoint" />
            <mxPoint x="1628" y="662" as="targetPoint" />
          </mxGeometry>
        </mxCell>
        <mxCell id="E7Js1CmvD6nsmvyOke-_-46" value="makes" style="text;html=1;align=center;verticalAlign=middle;whiteSpace=wrap;rounded=0;" parent="WIyWlLk6GJQsqaUBKTNV-1" vertex="1">
          <mxGeometry x="1515" y="641" width="60" height="30" as="geometry" />
        </mxCell>
        <mxCell id="E7Js1CmvD6nsmvyOke-_-48" value="Tracks" style="text;html=1;align=center;verticalAlign=middle;whiteSpace=wrap;rounded=0;" parent="WIyWlLk6GJQsqaUBKTNV-1" vertex="1">
          <mxGeometry x="1737" y="1113" width="60" height="30" as="geometry" />
        </mxCell>
        <mxCell id="E7Js1CmvD6nsmvyOke-_-49" value="" style="endArrow=none;dashed=1;html=1;rounded=0;" parent="WIyWlLk6GJQsqaUBKTNV-1" edge="1">
          <mxGeometry width="50" height="50" relative="1" as="geometry">
            <mxPoint x="855" y="1167" as="sourcePoint" />
            <mxPoint x="855" y="913" as="targetPoint" />
          </mxGeometry>
        </mxCell>
        <mxCell id="E7Js1CmvD6nsmvyOke-_-54" value="manages" style="text;html=1;align=center;verticalAlign=middle;whiteSpace=wrap;rounded=0;" parent="WIyWlLk6GJQsqaUBKTNV-1" vertex="1">
          <mxGeometry x="1274" y="858" width="60" height="30" as="geometry" />
        </mxCell>
      </root>
    </mxGraphModel>
  </diagram>
</mxfile>
